<?xml version="1.0" encoding="UTF-8" standalone="no"?>
<svg
   xmlns:dc="http://purl.org/dc/elements/1.1/"
   xmlns:cc="http://creativecommons.org/ns#"
   xmlns:rdf="http://www.w3.org/1999/02/22-rdf-syntax-ns#"
   xmlns:svg="http://www.w3.org/2000/svg"
   xmlns="http://www.w3.org/2000/svg"
   width="100%"
   height="100%"
   viewBox="0 0 64 64"
   version="1.1"
   xml:space="preserve"
   style="fill-rule:evenodd;clip-rule:evenodd;stroke-linecap:round;stroke-linejoin:round;stroke-miterlimit:2;"
   id="svg19">
  <metadata
   id="metadata25">
    <rdf:RDF>
      <cc:Work
   rdf:about="">
        <dc:format>image/svg+xml</dc:format>

        <dc:type
   rdf:resource="http://purl.org/dc/dcmitype/StillImage" />

      </cc:Work>

    </rdf:RDF>

  </metadata>

  <defs
   id="defs23" />

  
  <path
   d="M52.5,7l-33.5,0c-2.209,0 -4,1.791 -4,4c0,9.04 0,30.96 0,40c0,2.209 1.791,4 4,4c0.588,0 1,0 1,0"
   style="fill:none;stroke:#222a33;stroke-width:2px;"
   id="path3" />

  <path
   d="M39.5,55l5.5,0c1.061,0 2.078,-0.421 2.828,-1.172c0.751,-0.75 1.172,-1.767 1.172,-2.828c0,-9.211 0,-31.796 0,-40.5c0,-0.928 0.369,-1.818 1.025,-2.475c0.657,-0.656 1.547,-1.025 2.475,-1.025c0.928,0 1.818,0.369 2.475,1.025c0.656,0.657 1.025,1.547 1.025,2.475c0,4.17 0,11.121 0,15.5c0,2.209 -1.791,4 -4,4c-1.523,0 -2.9,0 -2.9,0"
   style="fill:none;stroke:#222a33;stroke-width:2px;"
   id="path5" />

  <path
   d="M22,16l18,0"
   style="fill:none;stroke:#222a33;stroke-width:2px;"
   id="path7" />

  <path
   d="M22,22.054l18,0"
   style="fill:none;stroke:#222a33;stroke-width:2px;"
   id="path9" />

  <path
   d="M22,28l18,0"
   style="fill:none;stroke:#222a33;stroke-width:2px;"
   id="path11" />

  <path
   d="M22,34l18,0"
   style="fill:none;stroke:#222a33;stroke-width:2px;"
   id="path13" />

  <path
   d="M40,44.5c0,-1.657 -1.343,-3 -3,-3c-2.859,0 -7.141,0 -10,0c-1.657,0 -3,1.343 -3,3c0,2.02 0,4.728 0,7.051c0,2.953 1.732,5.631 4.425,6.841c1.849,0.832 3.575,1.608 3.575,1.608c0,0 1.726,-0.776 3.575,-1.608c2.693,-1.21 4.425,-3.888 4.425,-6.841l0,-7.051Z"
   style="fill:none;stroke:#222a33;stroke-width:2px;"
   id="path15" />

  <path
   d="M28.75,50.248l2.5,2l4,-3.5"
   style="fill:none;stroke:#222a33;stroke-width:2px;"
   id="path17" />

</svg>
