<?xml version="1.0" encoding="iso-8859-1"?>
<!-- Generator: Adobe Illustrator 19.0.0, SVG Export Plug-In . SVG Version: 6.00 Build 0)  -->
<svg xmlns="http://www.w3.org/2000/svg" xmlns:xlink="http://www.w3.org/1999/xlink" version="1.1" id="Capa_1" x="0px" y="0px" viewBox="0 0 512 512" style="enable-background:new 0 0 512 512;" xml:space="preserve">
<path style="fill:#FCD495;" d="M263,430.394v-58.245l8.543,1.149c4.62,0.622,9.204,0.936,13.625,0.936  c4.022,0,8.167-0.266,12.319-0.794l8.513-1.079v58.033L263,430.394L263,430.394z"/>
<path style="fill:#F2B25F;" d="M297.487,373.44c-4.152,0.527-8.297,0.794-12.319,0.794c-0.974,0-1.959-0.021-2.948-0.052l0,0  c-0.56-0.017-1.125-0.047-1.688-0.074c-0.461-0.022-0.921-0.043-1.384-0.072c-0.508-0.031-1.018-0.068-1.528-0.106  c-0.592-0.045-1.186-0.096-1.781-0.152c-0.405-0.038-0.809-0.073-1.215-0.116c-1.025-0.108-2.052-0.226-3.082-0.364l-8.542-1.15  v26.097v32.148h19.22v-28.037c0-1.607,1.311-2.889,2.918-2.888c0.01,0,0.02,0,0.029,0c7.011,0,13.988-0.384,20.832-1.135v-25.972  L297.487,373.44z"/>
<path style="fill:#9B735A;" d="M495.188,7H16.813C11.402,7,7,11.402,7,16.813v323.373c0,5.411,4.402,9.813,9.813,9.813h478.373  c5.411,0,9.813-4.402,9.813-9.813V16.813C505,11.402,500.598,7,495.188,7z"/>
<path style="fill:#8C5F50;" d="M495.188,264.177H91.794V16.813c0-5.411,4.402-9.813,9.813-9.813H16.813C11.402,7,7,11.402,7,16.813  v237.55v85.823c0,5.411,4.402,9.813,9.813,9.813h84.794h393.579c5.411,0,9.813-4.402,9.813-9.813v-85.823  C505,259.775,500.598,264.177,495.188,264.177z"/>
<rect x="32" y="32" style="fill:#346DA5;" width="448" height="293"/>
<path style="fill:#244559;" d="M472.271,244.874c-23.158-0.783-35.455-5.185-48.475-9.845C410.021,230.099,395.777,225,367.755,225  c-28.023,0-42.268,5.099-56.043,10.029c-14.324,5.128-27.854,9.971-55.705,9.971c-27.852,0-41.383-4.843-55.709-9.971  C186.522,230.099,172.277,225,144.253,225s-42.269,5.099-56.046,10.029c-13.017,4.66-25.313,9.062-48.478,9.845L32,245.135V325h448  v-79.865L472.271,244.874z"/>
<path style="fill:#346DA5;" d="M218,505v-51.261C218,432.378,235.378,415,256.74,415h57.521c21.362,0,38.74,17.378,38.74,38.739V505  H218z"/>
<path style="fill:#724F4F;" d="M285.168,388.597c-9.738,0-19.725-0.731-29.682-2.176c-3.693-0.529-6.656-3.36-7.36-7.042  l-5.872-30.728c-2.424-12.685,0.892-25.686,9.097-35.669c8.088-9.843,19.987-15.532,32.645-15.61h1.009  c12.656,0.078,24.556,5.768,32.645,15.608c8.205,9.985,11.521,22.986,9.1,35.67l-6.347,33.207l-0.958,0.957  c-1.342,1.93-3.432,3.286-5.841,3.655C304.362,387.882,294.796,388.597,285.168,388.597z"/>
<path style="fill:#FC5D4C;" d="M152.84,437.604l-2.999-0.517h-43.012l-1.416,0.197l-3.142,0.698  C83.572,442.137,70,459.056,70,478.213V505h117v-26.787C187,458.097,172.633,441.018,152.84,437.604z"/>
<path style="fill:#D8483D;" d="M139.772,437.982l3.142-0.698v-0.197H106.83l-1.416,0.197l-3.142,0.698  C83.572,442.137,70,459.056,70,478.213V505h37.5v-26.787C107.5,459.056,121.072,442.137,139.772,437.982z"/>
<path style="fill:#FCD495;" d="M127.5,445.865c-2.453,0-4.92-0.281-7.387-0.841c-5.272-1.196-10.073-3.928-13.965-7.679L106,437.202  v-39.181h43v39.065l0,0c-3.942,3.906-8.851,6.769-14.268,7.972C132.317,445.595,129.902,445.865,127.5,445.865z"/>
<path style="fill:#F2B25F;" d="M121.414,398.021H106v21.808v17.373l0.148,0.143c3.892,3.751,8.693,6.483,13.965,7.679  c0.434,0.098,0.867,0.177,1.3,0.258v-19.016c0-2.415,1.971-4.379,4.385-4.337c0.567,0.01,1.135,0.015,1.701,0.015  c7.11,0,14.294-0.708,21.5-2.114v-21.808L121.414,398.021L121.414,398.021z"/>
<path style="fill:#724F4F;" d="M127.5,411.832c-14.184,0-28.659-2.816-43.024-8.369c-4.429-1.711-7.241-6.222-6.837-10.97  l4.499-52.774c1.991-23.352,21.725-41.735,44.926-41.853h0.822c23.248,0.117,42.987,18.501,44.978,41.853l4.499,52.773  c0.404,4.749-2.408,9.26-6.839,10.972C156.159,409.016,141.684,411.832,127.5,411.832z"/>
<path style="fill:#2C5470;" d="M294.24,415h-37.5C235.378,415,218,432.378,218,453.739V505h37.5v-51.261  C255.5,432.378,272.878,415,294.24,415z"/>
<g>
	<path style="fill:#5B4343;" d="M292.986,386.421c-3.693-0.529-6.656-3.36-7.36-7.042l-5.872-30.728   c-2.424-12.685,0.892-25.686,9.097-35.669c3.992-4.859,8.916-8.7,14.399-11.359c-5.624-2.728-11.837-4.211-18.245-4.251h-1.009   c-12.657,0.078-24.557,5.768-32.645,15.61c-8.205,9.983-11.521,22.984-9.097,35.669l5.872,30.728   c0.705,3.682,3.667,6.513,7.36,7.042c9.958,1.444,19.944,2.176,29.682,2.176c6.234,0,12.441-0.305,18.552-0.899   C300.147,387.363,296.565,386.94,292.986,386.421z"/>
	<path style="fill:#5B4343;" d="M121.976,403.463c-4.429-1.711-7.241-6.222-6.837-10.97l4.499-52.774   c1.435-16.827,12.083-31.071,26.602-37.763c-5.637-2.595-11.858-4.056-18.354-4.089h-0.822   c-23.201,0.117-42.935,18.501-44.926,41.853l-4.499,52.774c-0.404,4.748,2.409,9.259,6.837,10.97   c14.365,5.553,28.841,8.369,43.024,8.369c6.205,0,12.467-0.539,18.75-1.611C138.171,408.844,130.056,406.586,121.976,403.463z"/>
</g>
<path style="fill:#FFDC64;" d="M372.805,181.783l-3.655-10.359C352.177,123.32,306.504,91,255.5,91  c-50.989,0-96.657,32.309-113.638,80.395l-3.677,10.413v17.932h89.103c7.835,1.38,17.088,2.26,28.719,2.26  c11.631,0,20.883-0.88,28.718-2.26h88.08V181.783z"/>
<path style="fill:#FFBD52;" d="M215.367,190.233c12.975-45.35,42.697-79.329,78.744-92.839C281.886,93.244,268.88,91,255.5,91  c-50.989,0-96.657,32.309-113.638,80.395l-3.677,10.413v17.932h74.463L215.367,190.233z"/>
<path style="fill:#2C5470;" d="M32,201.135l7.729-0.261c23.166-0.783,35.461-5.185,48.478-9.845  c13.777-4.93,28.022-10.029,56.046-10.029s42.269,5.099,56.044,10.029c14.327,5.128,27.858,9.971,55.709,9.971  c27.851,0,41.381-4.843,55.705-9.971c13.775-4.931,28.02-10.029,56.043-10.029c28.022,0,42.267,5.099,56.041,10.029  c13.02,4.66,25.316,9.062,48.475,9.845l7.729,0.261v45.023l-8.291-0.301c-22.963-0.836-35.818-5.438-48.25-9.887  c-14.324-5.128-27.854-9.971-55.704-9.971c-27.851,0-41.381,4.843-55.705,9.971c-13.775,4.931-28.018,10.03-56.042,10.03  c-28.025,0-42.27-5.099-56.045-10.029c-14.326-5.128-27.857-9.971-55.708-9.971c-27.852,0-41.383,4.843-55.708,9.971  c-12.434,4.45-25.292,9.052-48.254,9.888l-8.292,0.3V201.135z"/>
<path d="M256.5,51c-4.142,0-7.5,3.357-7.5,7.5v9c0,4.143,3.358,7.5,7.5,7.5c4.143,0,7.5-3.357,7.5-7.5v-9  C264,54.357,260.643,51,256.5,51z"/>
<path d="M160.188,94.874c-2.929-2.929-7.678-2.93-10.607-0.001s-2.929,7.678,0,10.606l6.364,6.364  c1.465,1.465,3.384,2.197,5.304,2.197c1.919,0,3.839-0.732,5.303-2.196c2.929-2.929,2.929-7.678,0-10.606L160.188,94.874z"/>
<path d="M352.02,95.787l-6.364,6.364c-2.929,2.93-2.929,7.678,0,10.607c1.465,1.464,3.385,2.196,5.304,2.196  s3.839-0.732,5.304-2.196l6.364-6.364c2.929-2.93,2.929-7.678,0-10.607C359.697,92.859,354.949,92.859,352.02,95.787z"/>
<path d="M495.188,0H16.813C7.542,0,0,7.543,0,16.813v323.373C0,349.457,7.542,357,16.813,357h56.825l-2.975,34.896  c-0.668,7.828,3.974,15.27,11.288,18.096c5.67,2.192,11.354,3.972,17.048,5.342v16.243c-20.833,5.479-36,24.71-36,46.636V504.5  c0,4.143,3.358,7.5,7.5,7.5h116c4.142,0,7.5-3.357,7.5-7.5v-26.287c0-22.81-16.074-42.387-38-47.119v-15.76  c5.694-1.369,11.378-3.149,17.047-5.341c7.314-2.827,11.957-10.269,11.289-18.096L181.361,357h55.361l4.527,23.691  c1.263,6.607,6.581,11.694,13.233,12.658c0.506,0.073,1.012,0.137,1.518,0.207v14.463c-24.88,0.398-45,20.748-45,45.72V504.5  c0,4.143,3.358,7.5,7.5,7.5h134c4.143,0,7.5-3.357,7.5-7.5v-50.761c0-25.22-20.519-45.739-45.739-45.739H313v-14.374  c0.552-0.079,1.106-0.153,1.656-0.237c6.573-1.004,11.83-6.081,13.081-12.634L332.279,357h162.908  c9.271,0,16.813-7.543,16.813-16.813V16.813C512,7.543,504.457,0,495.188,0z M179,478.213V497H78v-18.787  c0-15.53,11.039-29.095,26.007-32.421c7.703,4.685,15.598,7.029,23.493,7.029c8.062,0,16.123-2.449,23.98-7.334  C167.266,448.21,179,462.031,179,478.213z M114,434.232v-16.251c4.498,0.511,8.999,0.773,13.5,0.773c4.501,0,9.002-0.262,13.5-0.773  v16.251C131.864,439.076,123.136,439.076,114,434.232z M167.64,396.001L167.64,396.001c-27.01,10.44-53.27,10.441-80.28,0  c-1.135-0.438-1.855-1.602-1.75-2.83l4.499-52.772c1.643-19.268,17.898-34.436,36.995-34.532h0.781  c19.109,0.097,35.364,15.265,37.007,34.532l4.499,52.773C169.495,394.399,168.775,395.563,167.64,396.001z M234.508,342h-54.426  l-0.245-2.875c-0.206-2.412-0.576-4.791-1.1-7.125h56.478C234.653,335.286,234.406,338.633,234.508,342z M314.261,423  C331.21,423,345,436.79,345,453.739V497H226v-43.261C226,436.79,239.79,423,256.74,423H314.261z M271,408v-12.896  c4.751,0.323,9.477,0.492,14.168,0.492c4.308,0,8.586-0.145,12.832-0.418V408H271z M318.891,347.149l-5.885,30.79  c-0.001,0.001-0.001,0.001-0.001,0.002c-0.061,0.319-0.313,0.574-0.612,0.62c-17.888,2.733-36.646,2.714-55.758-0.058  c-0.327-0.047-0.588-0.3-0.651-0.629l-5.872-30.726c-1.977-10.343,0.728-20.945,7.42-29.088c6.575-8.001,16.24-12.626,26.514-12.689  c0.152-0.001,0.304-0.002,0.455-0.002s0.302,0.001,0.452,0.002c10.276,0.063,19.94,4.688,26.516,12.688  C318.16,326.204,320.865,336.807,318.891,347.149z M328.678,317c-1.573-2.972-3.442-5.812-5.621-8.463  c-9.412-11.453-23.267-18.073-38.014-18.165c-0.362-0.002-0.725-0.002-1.089,0c-14.744,0.092-28.599,6.712-38.011,18.165  c-2.179,2.651-4.049,5.491-5.621,8.463h-67.477c-2.575-4.426-5.791-8.497-9.601-12.059c-9.639-9.011-22.169-14.009-35.295-14.075  h-0.908c-13.115,0.066-25.645,5.064-35.284,14.075c-3.81,3.562-7.026,7.632-9.601,12.059H40v-64.131  c24.374-0.825,37.85-5.635,50.904-10.308c13.737-4.917,26.713-9.562,53.35-9.562c26.636,0,39.612,4.645,53.349,9.562  C211.94,247.693,226.767,253,256.007,253c29.239,0,44.064-5.307,58.401-10.438c8.879-3.178,17.444-6.242,29.583-8.011  c3.684-0.537,6.421-3.698,6.421-7.421c0-4.552-4.027-8.085-8.532-7.432c-13.623,1.975-23.179,5.395-32.526,8.741  c-13.736,4.917-26.712,9.562-53.347,9.562c-26.637,0-39.612-4.645-53.35-9.562C188.319,223.307,173.493,218,144.253,218  s-44.066,5.307-58.404,10.438c-12.379,4.431-24.153,8.636-45.849,9.424v-28.994c24.374-0.825,37.85-5.635,50.904-10.308  c13.737-4.917,26.713-9.562,53.35-9.562c26.636,0,39.612,4.645,53.349,9.562c14.337,5.133,29.164,10.44,58.404,10.44  c29.239,0,44.064-5.307,58.401-10.438c13.736-4.917,26.712-9.562,53.347-9.562s39.609,4.645,53.346,9.562  c13.053,4.672,26.528,9.483,50.899,10.308v28.993c-21.693-0.789-33.467-4.993-45.845-9.424c-10.726-3.84-21.733-7.774-38.839-9.513  c-4.41-0.448-8.243,3.031-8.243,7.464l0,0c0,3.844,2.913,7.067,6.738,7.457c15.29,1.558,25.081,5.061,35.29,8.716  c13.053,4.672,26.528,9.483,50.899,10.308V317H328.678z M255.5,99c47.715,0,90.393,30.557,106.105,75.085  c-25.236,0.689-38.958,5.594-52.252,10.353c-13.736,4.917-26.712,9.562-53.347,9.562c-26.637,0-39.612-4.645-53.35-9.562  c-13.47-4.821-27.373-9.796-53.252-10.38c4.483-12.693,11.165-24.241,19.525-34.276c2.457-2.949,2.247-7.286-0.467-10  c-0.036-0.036-0.071-0.071-0.107-0.107c-3.089-3.089-8.187-2.886-10.972,0.479c-10.737,12.974-18.915,28.017-23.83,44.104  c-22.383,1.12-35.232,5.715-47.706,10.18c-12.379,4.431-24.153,8.636-45.849,9.424V40h432v153.862  c-21.693-0.789-33.467-4.993-45.845-9.424c-12.661-4.532-25.71-9.198-48.724-10.227c-7.715-25.218-23.43-47.881-44.484-64.002  C310.554,93.063,283.773,84,255.5,84c-22.172,0-43.418,5.592-62.356,16.272c-4.383,2.472-5.244,8.415-1.686,11.973l0,0  c2.386,2.386,6.073,2.921,9.012,1.264C216.922,104.235,235.776,99,255.5,99z M497,340.187c0,1-0.813,1.813-1.813,1.813H334.492  c0.102-3.367-0.146-6.714-0.708-10H479.5c4.143,0,7.5-3.357,7.5-7.5v-292c0-4.143-3.357-7.5-7.5-7.5h-447  c-4.142,0-7.5,3.357-7.5,7.5v292c0,4.143,3.358,7.5,7.5,7.5h43.762c-0.523,2.334-0.894,4.713-1.1,7.125L74.917,342H16.813  c-1,0-1.813-0.813-1.813-1.813V16.813c0-1,0.813-1.813,1.813-1.813h478.373c1,0,1.813,0.813,1.813,1.813v323.374H497z"/>
<g>
</g>
<g>
</g>
<g>
</g>
<g>
</g>
<g>
</g>
<g>
</g>
<g>
</g>
<g>
</g>
<g>
</g>
<g>
</g>
<g>
</g>
<g>
</g>
<g>
</g>
<g>
</g>
<g>
</g>
</svg>
