<?xml version="1.0" encoding="UTF-8"?>
<!DOCTYPE svg PUBLIC "-//W3C//DTD SVG 1.1//EN" "http://www.w3.org/Graphics/SVG/1.1/DTD/svg11.dtd">
<!-- Creator: CorelDRAW -->
<svg xmlns="http://www.w3.org/2000/svg" xml:space="preserve" width="2048px" height="2048px" style="shape-rendering:geometricPrecision; text-rendering:geometricPrecision; image-rendering:optimizeQuality; fill-rule:evenodd; clip-rule:evenodd"
viewBox="0 0 2048 2048"
 xmlns:xlink="http://www.w3.org/1999/xlink">
 <defs>
  <style type="text/css">
   <![CDATA[
    .fil2 {fill:none}
    .fil4 {fill:#0277BD}
    .fil5 {fill:#039BE5}
    .fil9 {fill:#212121}
    .fil3 {fill:#29B6F6}
    .fil10 {fill:#333333}
    .fil11 {fill:#4D4D4D}
    .fil1 {fill:#8E24AA}
    .fil0 {fill:#BA68C8}
    .fil6 {fill:#E1F5FE}
    .fil8 {fill:#E53935}
    .fil7 {fill:#E6E6E6}
    .fil12 {fill:#FDD835}
   ]]>
  </style>
   <clipPath id="id0">
    <path d="M1024 0c565.539,0 1024,458.461 1024,1024 0,565.539 -458.461,1024 -1024,1024 -565.539,0 -1024,-458.461 -1024,-1024 0,-565.539 458.461,-1024 1024,-1024z"/>
   </clipPath>
 </defs>
 <g id="Layer_x0020_1">
  <metadata id="CorelCorpID_0Corel-Layer"/>
  <path class="fil0" d="M1024 0c565.539,0 1024,458.461 1024,1024 0,565.539 -458.461,1024 -1024,1024 -565.539,0 -1024,-458.461 -1024,-1024 0,-565.539 458.461,-1024 1024,-1024z"/>
  <g style="clip-path:url(#id0)">
   <g id="_341210704">
    <g>
     <polygon id="_3329339761" class="fil1" points="1219.2,784.149 2355.08,1920.03 2357.03,1922.18 2358.78,1924.52 2360.3,1927.01 2361.58,1929.66 2362.6,1932.44 2363.35,1935.34 2363.82,1938.33 2363.97,1941.42 2363.97,1978.44 1228.09,842.562 1228.09,805.537 1227.93,802.452 1227.47,799.453 1226.72,796.557 1225.7,793.778 1224.42,791.132 1222.9,788.636 1221.15,786.302 "/>
     <polygon id="_332934480" class="fil1" points="1345.32,866.885 2481.2,2002.77 2486.08,2008.12 2491.19,2013.9 2496.5,2020.06 2501.97,2026.53 2507.58,2033.28 2513.27,2040.23 2519.03,2047.35 2524.81,2054.57 2530.58,2061.83 2536.31,2069.1 2541.96,2076.3 2547.49,2083.39 2552.88,2090.31 2558.08,2097.01 2563.07,2103.44 2567.81,2109.54 2572.26,2115.25 2576.38,2120.52 2580.16,2125.3 2583.54,2129.53 2586.5,2133.16 2588.99,2136.13 2591,2138.39 1455.12,1002.51 1453.11,1000.25 1450.62,997.274 1447.66,993.644 1444.28,989.414 1440.5,984.635 1436.38,979.364 1431.93,973.653 1427.19,967.557 1422.2,961.132 1417,954.432 1411.61,947.508 1406.08,940.418 1400.43,933.214 1394.7,925.951 1388.93,918.683 1383.15,911.466 1377.39,904.352 1371.7,897.395 1366.09,890.651 1360.62,884.174 1355.31,878.018 1350.2,872.236 "/>
     <polygon id="_332934720" class="fil1" points="1556.7,1058.38 2692.58,2194.26 2692.58,2208.18 1556.7,1072.3 "/>
     <polygon id="_332935128" class="fil1" points="1557.71,1073.02 2693.59,2208.91 2694.04,2209.73 2694.45,2210.83 2694.83,2212.19 2695.17,2213.79 2695.48,2215.6 2695.76,2217.61 2695.99,2219.78 2696.2,2222.11 2696.37,2224.56 2696.51,2227.12 2696.61,2229.77 2696.68,2232.48 2696.72,2235.23 2696.72,2238.01 2696.7,2240.79 2696.64,2243.54 2696.55,2246.25 2696.42,2248.9 2696.27,2251.46 2696.08,2253.92 2695.87,2256.24 2695.62,2258.42 2695.34,2260.43 2695.04,2262.24 2694.7,2263.84 2694.34,2265.2 2693.94,2266.31 2693.52,2267.13 2693.06,2267.66 2692.58,2267.87 1556.7,1131.98 1557.18,1131.78 1557.64,1131.25 1558.06,1130.42 1558.45,1129.32 1558.82,1127.95 1559.16,1126.36 1559.46,1124.54 1559.74,1122.54 1559.99,1120.36 1560.2,1118.03 1560.39,1115.58 1560.54,1113.02 1560.66,1110.37 1560.76,1107.66 1560.81,1104.9 1560.84,1102.13 1560.84,1099.35 1560.8,1096.6 1560.73,1093.89 1560.63,1091.24 1560.49,1088.68 1560.32,1086.22 1560.11,1083.9 1559.87,1081.72 1559.6,1079.72 1559.29,1077.91 1558.95,1076.31 1558.57,1074.95 1558.16,1073.85 "/>
     <polygon id="_332934768" class="fil1" points="1556.7,1131.98 2692.58,2267.87 2692.58,2278.12 1556.7,1142.24 "/>
     <polygon id="_332898792" class="fil1" points="1578.81,1147.43 2714.69,2283.31 2715.83,2284.56 2716.85,2285.93 2717.74,2287.38 2718.49,2288.93 2719.09,2290.55 2719.52,2292.24 2719.79,2293.99 2719.88,2295.79 1584,1159.9 1583.91,1158.1 1583.64,1156.35 1583.2,1154.67 1582.61,1153.04 1581.86,1151.5 1580.97,1150.04 1579.95,1148.68 "/>
     <polygon id="_332898600" class="fil1" points="1584,1159.9 2719.88,2295.79 2719.88,2327.81 1584,1191.93 "/>
     <polygon id="_332899224" class="fil1" points="1584,1191.93 2719.88,2327.81 2719.79,2329.61 2719.52,2331.36 2719.09,2333.05 2718.49,2334.67 2717.74,2336.22 2716.85,2337.67 2715.83,2339.03 2714.69,2340.29 2713.44,2341.43 2712.08,2342.45 2710.62,2343.34 2709.08,2344.09 2707.45,2344.68 2705.76,2345.12 2704.01,2345.39 2702.21,2345.48 1566.33,1209.6 1568.13,1209.51 1569.88,1209.24 1571.57,1208.8 1573.19,1208.2 1574.74,1207.46 1576.19,1206.57 1577.55,1205.55 1578.81,1204.41 1579.95,1203.15 1580.97,1201.79 1581.86,1200.33 1582.61,1198.79 1583.2,1197.17 1583.64,1195.48 1583.91,1193.73 "/>
     <polygon id="_332898624" class="fil1" points="1566.33,1209.6 2702.21,2345.48 2675.16,2345.48 1539.28,1209.6 "/>
     <polygon id="_332898552" class="fil1" points="1448.44,1143.99 2584.32,2279.88 2581.47,2276.88 2578.48,2274.03 2575.35,2271.32 2572.1,2268.76 2568.72,2266.36 2565.23,2264.12 2561.62,2262.05 2557.9,2260.15 2554.09,2258.42 2550.17,2256.88 2546.17,2255.52 2542.08,2254.36 2537.91,2253.4 2533.67,2252.64 2529.36,2252.09 2524.99,2251.76 2520.55,2251.65 1384.67,1115.77 1389.11,1115.88 1393.48,1116.21 1397.79,1116.76 1402.03,1117.52 1406.2,1118.48 1410.29,1119.64 1414.29,1120.99 1418.21,1122.54 1422.02,1124.26 1425.74,1126.17 1429.34,1128.24 1432.84,1130.48 1436.22,1132.88 1439.47,1135.44 1442.6,1138.15 1445.59,1141 "/>
     <polygon id="_332898696" class="fil1" points="1384.67,1115.77 2520.55,2251.65 2516.12,2251.76 2511.74,2252.09 2507.43,2252.64 2503.19,2253.4 2499.02,2254.36 2494.93,2255.52 2490.93,2256.88 2487.02,2258.42 2483.2,2260.15 2479.49,2262.05 2475.88,2264.12 2472.38,2266.36 2469.01,2268.76 2465.75,2271.32 2462.63,2274.03 2459.63,2276.88 2456.78,2279.88 2454.07,2283 2451.52,2286.26 2449.11,2289.63 2446.87,2293.13 2444.8,2296.74 2442.9,2300.45 2441.17,2304.27 2439.63,2308.18 2438.27,2312.18 2437.11,2316.27 2436.15,2320.44 2435.39,2324.68 2434.85,2328.99 2434.51,2333.37 2434.4,2337.8 1298.52,1201.92 1298.63,1197.49 1298.97,1193.11 1299.51,1188.8 1300.27,1184.56 1301.23,1180.39 1302.39,1176.3 1303.75,1172.3 1305.29,1168.39 1307.02,1164.57 1308.92,1160.85 1310.99,1157.25 1313.23,1153.75 1315.64,1150.37 1318.19,1147.12 1320.9,1143.99 1323.75,1141 1326.75,1138.15 1329.87,1135.44 1333.13,1132.88 1336.5,1130.48 1340,1128.24 1343.61,1126.17 1347.32,1124.26 1351.14,1122.54 1355.05,1120.99 1359.05,1119.64 1363.14,1118.48 1367.31,1117.52 1371.55,1116.76 1375.86,1116.21 1380.24,1115.88 "/>
     <polygon id="_332899776" class="fil1" points="1437.25,1154.46 2573.13,2290.34 2575.42,2293.01 2577.59,2295.81 2579.63,2298.74 2581.54,2301.8 2583.3,2304.99 1447.42,1169.1 1445.65,1165.92 1443.75,1162.86 1441.7,1159.93 1439.54,1157.13 "/>
     <polygon id="_332899416" class="fil1" points="1298.52,1201.92 2434.4,2337.8 2434.41,2338.84 2434.43,2339.87 2434.46,2340.89 2434.5,2341.92 2434.56,2342.94 2434.62,2343.96 2434.7,2344.98 2434.79,2345.99 1298.91,1210.11 1298.82,1209.09 1298.74,1208.08 1298.68,1207.06 1298.62,1206.04 1298.58,1205.01 1298.55,1203.98 1298.53,1202.95 "/>
     <polygon id="_332899464" class="fil1" points="1298.91,1210.11 2434.79,2345.99 2394.43,2346.09 1258.55,1210.21 "/>
     <polygon id="_332899680" class="fil1" points="1258.55,1210.21 2394.43,2346.09 2394.43,2346.22 1258.55,1210.34 "/>
     <polygon id="_332899944" class="fil1" points="1258.55,1210.34 2394.43,2346.22 2342.07,2346.22 1206.19,1210.34 "/>
     <polygon id="_332899800" class="fil1" points="703.564,1137.65 1839.45,2273.53 1837.12,2271.53 1834.73,2269.61 1832.27,2267.78 1829.74,2266.03 1827.15,2264.37 1824.5,2262.8 1821.79,2261.33 1819.02,2259.95 1816.19,2258.67 1813.31,2257.49 1810.38,2256.41 1807.4,2255.43 1804.38,2254.57 1801.31,2253.81 1798.19,2253.16 1795.04,2252.62 1791.85,2252.2 1788.62,2251.9 1785.37,2251.71 1782.08,2251.65 646.195,1115.77 649.485,1115.83 652.744,1116.02 655.969,1116.32 659.16,1116.74 662.312,1117.28 665.424,1117.92 668.494,1118.68 671.52,1119.55 674.499,1120.53 677.429,1121.61 680.308,1122.79 683.135,1124.07 685.906,1125.45 688.619,1126.92 691.271,1128.49 693.863,1130.15 696.39,1131.9 698.851,1133.73 701.242,1135.65 "/>
     <polygon id="_332899344" class="fil1" points="500.678,1094.82 1636.56,2230.71 1634.96,2229.66 1633.44,2228.51 1631.98,2227.27 496.104,1091.39 497.554,1092.63 499.08,1093.77 "/>
     <polygon id="_332899824" class="fil1" points="646.195,1115.77 1782.08,2251.65 1778.79,2251.71 1775.53,2251.9 1772.3,2252.2 1769.11,2252.62 1765.96,2253.16 1762.85,2253.81 1759.78,2254.57 1756.75,2255.43 1753.77,2256.41 1750.84,2257.49 1747.96,2258.67 1745.14,2259.95 1742.37,2261.33 1739.65,2262.8 1737,2264.37 1734.41,2266.03 1731.88,2267.78 1729.42,2269.61 1727.03,2271.53 1724.71,2273.53 1722.46,2275.61 1720.29,2277.77 1718.19,2280 1716.17,2282.31 1714.24,2284.69 1712.39,2287.14 1710.63,2289.65 1708.95,2292.23 1707.37,2294.87 1705.87,2297.58 1704.48,2300.34 1703.18,2303.15 567.296,1167.27 568.595,1164.45 569.992,1161.69 571.485,1158.99 573.069,1156.35 574.745,1153.77 576.508,1151.26 578.359,1148.81 580.294,1146.43 582.309,1144.12 584.405,1141.89 586.577,1139.73 588.826,1137.65 591.147,1135.65 593.539,1133.73 596,1131.89 598.526,1130.15 601.118,1128.49 603.772,1126.92 606.485,1125.45 609.256,1124.07 612.081,1122.79 614.96,1121.61 617.891,1120.53 620.869,1119.55 623.895,1118.68 626.965,1117.92 630.077,1117.28 633.23,1116.74 636.42,1116.32 639.645,1116.02 642.904,1115.83 "/>
     <polygon id="_332900016" class="fil1" points="567.296,1167.27 1703.18,2303.15 1702.33,2305.15 1701.53,2307.18 1700.78,2309.23 1700.08,2311.31 1699.43,2313.4 1698.83,2315.53 1698.29,2317.67 1697.8,2319.83 1697.37,2322.02 1696.99,2324.22 1696.67,2326.44 1696.4,2328.68 1696.19,2330.94 1696.04,2333.21 1695.95,2335.5 1695.92,2337.8 560.043,1201.92 560.073,1199.62 560.163,1197.33 560.312,1195.06 560.52,1192.8 560.785,1190.56 561.108,1188.34 561.486,1186.13 561.921,1183.95 562.408,1181.79 562.952,1179.64 563.547,1177.52 564.194,1175.42 564.895,1173.35 565.645,1171.3 566.445,1169.27 "/>
     <polygon id="_332899584" class="fil1" points="493.287,1137.46 1629.17,2273.34 1625.02,2273.34 489.135,1137.46 "/>
     <polygon id="_332900232" class="fil1" points="560.454,1210.34 1696.33,2346.22 1667.79,2346.22 531.911,1210.34 "/>
     <polygon id="_332900160" class="fil1" points="531.911,1210.34 1667.79,2346.22 1629.17,2346.22 493.287,1210.34 "/>
     <polygon id="_332900808" class="fil1" points="493.287,1210.34 1629.17,2346.22 1619.2,2346.22 483.323,1210.34 "/>
     <polygon id="_332900352" class="fil1" points="483.323,1210.34 1619.2,2346.22 1617.24,2346.12 1615.32,2345.82 1613.47,2345.35 1611.7,2344.69 1610.01,2343.88 1608.42,2342.91 1606.93,2341.79 471.05,1205.91 472.538,1207.02 474.131,1207.99 475.82,1208.81 477.593,1209.46 479.442,1209.94 481.354,1210.24 "/>
     <polygon id="_332900712" class="fil1" points="560.043,1201.92 1695.92,2337.8 1695.93,2338.87 1695.95,2339.93 1695.98,2340.98 1696.03,2342.04 1696.09,2343.09 1696.16,2344.13 1696.24,2345.18 1696.33,2346.22 560.454,1210.34 560.359,1209.3 560.275,1208.25 560.206,1207.21 560.146,1206.15 560.102,1205.1 560.069,1204.05 560.05,1202.99 "/>
     <polygon id="_332900760" class="fil1" points="708.949,1169.11 1844.83,2304.99 1846.44,2308.26 1847.86,2311.57 1849.1,2314.92 1850.17,2318.3 1851.05,2321.7 1851.77,2325.12 1852.3,2328.55 1852.67,2331.99 1852.87,2335.43 1852.9,2338.86 1852.76,2342.28 1852.46,2345.68 1852,2349.05 1851.37,2352.4 1850.59,2355.7 1849.65,2358.97 1848.56,2362.19 1847.32,2365.35 1845.92,2368.45 1844.37,2371.49 1842.68,2374.45 1840.84,2377.34 1838.86,2380.14 1836.74,2382.85 1834.48,2385.46 1832.08,2387.97 1829.54,2390.38 1826.88,2392.66 1824.07,2394.83 1821.14,2396.87 1818.08,2398.78 1814.9,2400.55 679.015,1264.67 682.201,1262.9 685.261,1260.99 688.192,1258.95 690.994,1256.78 693.662,1254.49 696.198,1252.09 698.598,1249.58 700.86,1246.97 702.981,1244.26 704.963,1241.46 706.799,1238.57 708.492,1235.61 710.038,1232.57 711.434,1229.47 712.679,1226.31 713.771,1223.09 714.71,1219.82 715.491,1216.51 716.115,1213.17 716.578,1209.79 716.879,1206.39 717.016,1202.98 716.986,1199.55 716.789,1196.11 716.423,1192.67 715.886,1189.24 715.173,1185.82 714.286,1182.42 713.223,1179.04 711.98,1175.69 710.555,1172.38 "/>
     <polygon id="_332900376" class="fil1" points="1447.42,1169.1 2583.3,2304.99 2584.91,2308.26 2586.34,2311.57 2587.58,2314.92 2588.64,2318.3 2589.53,2321.7 2590.24,2325.12 2590.78,2328.55 2591.15,2331.99 2591.34,2335.43 2591.37,2338.86 2591.23,2342.28 2590.93,2345.67 2590.47,2349.05 2589.85,2352.4 2589.07,2355.7 2588.13,2358.97 2587.03,2362.19 2585.79,2365.35 2584.39,2368.45 2582.85,2371.49 2581.16,2374.45 2579.32,2377.34 2577.34,2380.14 2575.21,2382.85 2572.95,2385.46 2570.55,2387.97 2568.02,2390.38 2565.35,2392.66 2562.55,2394.83 2559.62,2396.87 2556.56,2398.78 2553.37,2400.55 1417.49,1264.67 1420.68,1262.9 1423.74,1260.99 1426.67,1258.95 1429.47,1256.78 1432.14,1254.49 1434.67,1252.09 1437.07,1249.58 1439.33,1246.97 1441.46,1244.26 1443.44,1241.45 1445.27,1238.57 1446.97,1235.61 1448.51,1232.57 1449.91,1229.47 1451.15,1226.3 1452.25,1223.09 1453.18,1219.82 1453.97,1216.51 1454.59,1213.17 1455.05,1209.79 1455.35,1206.39 1455.49,1202.97 1455.46,1199.54 1455.26,1196.11 1454.9,1192.67 1454.36,1189.24 1453.65,1185.82 1452.76,1182.42 1451.7,1179.04 1450.45,1175.69 1449.03,1172.38 "/>
     <polygon id="_332900472" class="fil1" points="1539.28,1209.6 2675.16,2345.48 2606.35,2345.57 1470.47,1209.69 "/>
     <polygon id="_332900616" class="fil1" points="1417.49,1264.67 2553.37,2400.55 2550.1,2402.16 2546.79,2403.58 2543.44,2404.83 2540.06,2405.89 2536.66,2406.78 2533.24,2407.49 2529.8,2408.03 2526.37,2408.39 2522.93,2408.59 2519.5,2408.62 2516.08,2408.48 2512.68,2408.18 2509.3,2407.72 2505.96,2407.1 2502.65,2406.31 2499.39,2405.38 2496.17,2404.28 2493,2403.04 2489.9,2401.64 2486.86,2400.1 2483.9,2398.4 2481.02,2396.57 2478.22,2394.59 2475.51,2392.46 2472.89,2390.2 2470.38,2387.8 1334.5,1251.92 1337.01,1254.32 1339.62,1256.58 1342.33,1258.7 1345.13,1260.68 1348.02,1262.52 1350.98,1264.21 1354.02,1265.76 1357.12,1267.15 1360.29,1268.4 1363.5,1269.49 1366.77,1270.43 1370.08,1271.21 1373.42,1271.84 1376.8,1272.3 1380.2,1272.6 1383.62,1272.74 1387.05,1272.71 1390.48,1272.51 1393.92,1272.14 1397.35,1271.61 1400.77,1270.89 1404.18,1270.01 1407.56,1268.94 1410.9,1267.7 1414.22,1266.28 "/>
     <polygon id="_332901000" class="fil1" points="693.86,1149.53 1829.74,2285.41 1832.25,2287.81 1834.65,2290.34 1836.94,2293.01 1839.11,2295.81 1841.15,2298.74 1843.06,2301.8 1844.83,2304.99 708.949,1169.11 707.18,1165.92 705.271,1162.86 703.23,1159.93 701.062,1157.13 698.774,1154.46 696.371,1151.92 "/>
     <polygon id="_332901240" class="fil1" points="679.015,1264.67 1814.9,2400.55 1811.62,2402.16 1808.31,2403.58 1804.96,2404.83 1801.58,2405.89 1798.18,2406.78 1794.76,2407.49 1791.33,2408.03 1787.89,2408.39 1784.45,2408.59 1781.02,2408.62 1777.61,2408.48 1774.2,2408.18 1770.83,2407.72 1767.48,2407.1 1764.18,2406.31 1760.91,2405.38 1757.69,2404.28 1754.53,2403.04 1751.43,2401.64 1748.39,2400.1 1745.43,2398.4 1742.54,2396.57 1739.74,2394.59 1737.03,2392.46 1734.42,2390.2 598.536,1254.32 601.15,1256.58 603.86,1258.7 606.661,1260.68 609.546,1262.52 612.51,1264.22 615.546,1265.76 618.649,1267.16 621.812,1268.4 625.029,1269.49 628.295,1270.43 631.603,1271.21 634.948,1271.84 638.324,1272.3 641.724,1272.6 645.142,1272.74 648.572,1272.71 652.009,1272.51 655.446,1272.15 658.878,1271.61 662.299,1270.9 665.702,1270.01 669.08,1268.94 672.429,1267.7 675.743,1266.28 "/>
     <polygon id="_332901192" class="fil1" points="1206.19,1210.34 2342.07,2346.22 1867.82,2346.22 731.936,1210.34 "/>
    </g>
    <path id="_341210416" class="fil1" d="M1197.81 775.253c16.6571,0 30.2847,13.6288 30.2847,30.2847l0 37.0252c27.5776,-0.0578741 77.2772,0.414567 92.5028,3.44055 21.6709,4.30985 130.309,155.989 136.911,158.687 0.45,0.184252 1.16457,0.49252 2.11417,0.915355 12.965,5.74961 69.9355,32.6457 97.082,52.7752l0 13.9146c5.76024,0.375591 5.28307,59.2796 0,59.6894l0 10.252 9.6319 0c9.71812,0 17.6681,7.95001 17.6681,17.6669l0 32.0256c0,9.71694 -7.95001,17.6693 -17.6681,17.6693l-27.052 0 -68.8111 0.0933072c0.229134,-2.56181 0.351969,-5.15315 0.351969,-7.77166 0,-47.5807 -38.5701,-86.1532 -86.1509,-86.1532 -47.5796,0 -86.1509,38.5725 -86.1509,86.1532 0,2.76024 0.135827,5.49095 0.388583,8.18623l-40.3607 0.0992127 0 0.129921 -52.3559 0 -474.257 0c0.269292,-2.76851 0.411024,-5.57599 0.411024,-8.413 0,-12.326 -2.58898,-24.0484 -7.25316,-34.6512 -13.337,-30.326 -43.6453,-51.5008 -78.8989,-51.5008 -35.2536,0 -65.5607,21.1736 -78.8989,51.4985 -4.66418,10.6039 -7.25316,22.3264 -7.25316,34.6536 0,2.83701 0.141732,5.64449 0.411024,8.413l-28.5425 0 -38.6244 0 -9.96379 0c-10.6276,0 -19.324,-8.69646 -19.324,-19.324l0 -29.452c0,-10.6276 8.69646,-19.3228 19.324,-19.3228l9.96379 0 0 -4.77638 -4.15158 0 0 -34.5095 4.15158 0 0 -8.12717 7.39134 0c-8.70355,-5.33504 -14.5406,-14.9386 -14.5406,-25.8402l0 -263.446c0,-16.6571 13.6288,-30.2847 30.2859,-30.2847l681.383 0zm154.055 363.912c34.6488,-18.1193 77.4438,-4.70788 95.5619,29.9398 18.1217,34.6536 4.71733,77.4438 -29.9327,95.5642 -34.6583,18.124 -77.4485,4.71969 -95.5713,-29.9339 -18.1169,-34.6477 -4.71615,-77.4449 29.9421,-95.5702zm-642.912 29.9421c18.1217,34.6536 4.71733,77.4426 -29.9339,95.5631 -34.6583,18.124 -77.4473,4.72087 -95.5702,-29.9339 -18.1169,-34.6477 -4.71615,-77.4449 29.9433,-95.569 34.6477,-18.1205 77.4426,-4.70906 95.5607,29.9398z"/>
   </g>
  </g>
  <path class="fil2" d="M1024 0c565.539,0 1024,458.461 1024,1024 0,565.539 -458.461,1024 -1024,1024 -565.539,0 -1024,-458.461 -1024,-1024 0,-565.539 458.461,-1024 1024,-1024z"/>
  <path class="fil3" d="M493.287 1094.82l765.262 0 0 115.512 -526.613 0c0.269292,-2.76969 0.411024,-5.57481 0.411024,-8.413 -0.0011811,-47.5807 -38.5725,-86.1532 -86.152,-86.1532 -47.5796,0 -86.1509,38.5725 -86.1509,86.1532 0,2.83819 0.140551,5.64331 0.409843,8.413l-67.167 0 0 -115.512z"/>
  <path class="fil4" d="M567.303 1167.27c-4.66654,10.6028 -7.25906,22.324 -7.25906,34.6512 0,2.83819 0.140551,5.64331 0.409843,8.413l-67.167 0 0 -43.0642 74.0162 0zm691.245 0l0 43.0642 -526.613 0c0.269292,-2.76969 0.411024,-5.57481 0.411024,-8.413 -0.0011811,-12.3284 -2.59606,-24.0484 -7.25906,-34.6512l533.461 0z"/>
  <path class="fil5" d="M1298.91 1210.11l-92.7166 0.229134 0 -115.512 7.99843 0 0 -252.175c19.1374,-0.229134 87.9875,-0.305906 106.403,3.35433 21.6709,4.30985 130.31,155.989 136.911,158.688 6.60119,2.69882 70.0701,32.0918 99.1961,53.6894l0 151.194 -86.2312 0.116929c0.229134,-2.56181 0.351969,-5.15315 0.351969,-7.77284 0,-47.5796 -38.5701,-86.152 -86.1509,-86.152 -47.5796,0 -86.1509,38.5725 -86.1509,86.152 0,2.76142 0.134646,5.49213 0.388583,8.18741z"/>
  <path class="fil4" d="M1459.62 1005.61c12.965,5.74961 69.9355,32.6457 97.082,52.7752 -6.33189,1.1126 -20.1721,2.2004 -20.1721,2.2004 0,0 -80.6127,-36.9922 -83.3729,-38.6492 -1.63819,-0.982678 2.36221,-8.77087 6.463,-16.3264z"/>
  <path class="fil6" d="M1251.33 1011.57l187.21 0c0,0 -104.394,-143.004 -116.502,-143.004l-70.7079 0 0 143.004z"/>
  <path class="fil4" d="M1390.96 1011.57l47.5843 0c0,0 -10.6866,-16.2744 -25.3087,-37.8331 -7.73386,12.9827 -16.624,28.154 -22.2756,37.8331z"/>
  <path class="fil7" d="M1545.21 1131.4c1.00039,0.400394 2.1437,0.582284 3.45591,0.582284 0,0 4.07717,0 7.9819,0 5.35276,0 5.83819,-59.693 0,-59.693 -2.99173,-0.0011811 -8.35394,0 -12.3036,0 -2.80984,-0.0011811 -3.03898,57.5776 0.865749,59.1107z"/>
  <path class="fil8" d="M1545.12 1131.44c3.11929,0 3.11929,-59.113 -0.657875,-59.113 -2.50276,0 -5.1189,0 -5.1189,0 -17.9315,0.94252 -15.639,59.1934 5.77678,59.113z"/>
  <path class="fil9" d="M1351.86 1139.17c-34.6583,18.1228 -48.0591,60.9213 -29.9421,95.569 18.1217,34.6536 60.913,48.0579 95.5713,29.9327 34.65,-18.1193 48.0544,-60.9095 29.9327,-95.5631 -18.1181,-34.6477 -60.913,-48.0591 -95.5619,-29.9386zm52.578 100.541c-20.8807,10.9193 -46.6441,2.84646 -57.5599,-18.0236 -10.9181,-20.8807 -2.8441,-46.6394 18.0343,-57.5563 20.8713,-10.9146 46.6359,-2.85236 57.5552,18.0272 10.9134,20.8713 2.83937,46.6406 -18.0295,57.5528z"/>
  <path class="fil7" d="M1422.22 1182.28c10.8425,20.7343 2.82284,46.3347 -17.9114,57.1772 -20.7425,10.8473 -46.3394,2.8252 -57.1808,-17.9079 -10.8496,-20.7461 -2.82638,-46.3323 17.9162,-57.1796 20.7331,-10.8413 46.3264,-2.83347 57.176,17.9102z"/>
  <path class="fil10" d="M1399.89 1193.96c4.39252,8.40119 1.13858,18.789 -7.25316,23.1792 -8.40355,4.39489 -18.7961,1.14095 -23.1898,-7.25906 -4.39607,-8.40709 -1.13386,-18.7854 7.27205,-23.1827 8.39292,-4.38898 18.7736,-1.14449 23.1709,7.2626z"/>
  <path class="fil9" d="M613.387 1139.17c-34.6583,18.124 -48.0591,60.9225 -29.9421,95.5702 18.1217,34.6536 60.913,48.0579 95.5702,29.9327 34.6512,-18.1193 48.0555,-60.9095 29.9339,-95.5631 -18.1181,-34.6477 -60.913,-48.0603 -95.5619,-29.9398zm52.578 100.543c-20.8807,10.9193 -46.6441,2.84646 -57.5599,-18.0236 -10.9181,-20.8807 -2.8441,-46.6406 18.0343,-57.5563 20.8713,-10.9158 46.6359,-2.85236 57.5552,18.026 10.9134,20.8713 2.83937,46.6418 -18.0295,57.554z"/>
  <path class="fil7" d="M683.743 1182.29c10.8425,20.7331 2.82284,46.3347 -17.9114,57.1772 -20.7425,10.8461 -46.3394,2.82402 -57.1808,-17.9079 -10.8496,-20.7461 -2.82638,-46.3323 17.9162,-57.1808 20.7331,-10.8413 46.3264,-2.83347 57.176,17.9114z"/>
  <path class="fil10" d="M661.414 1193.96c4.39252,8.40119 1.13858,18.789 -7.25316,23.1792 -8.40355,4.39489 -18.7961,1.14095 -23.1898,-7.25906 -4.39607,-8.40709 -1.13386,-18.7854 7.27205,-23.1815 8.39292,-4.38898 18.7725,-1.14567 23.1709,7.26142z"/>
  <path class="fil11" d="M1499.25 1142.24l67.0843 0c9.71812,0 17.6681,7.95119 17.6681,17.6693l0 32.0244c0,9.71812 -7.95001,17.6693 -17.6681,17.6693l-67.0843 0c-9.71694,0 -17.6681,-7.95119 -17.6681,-17.6693l0 -32.0244c0,-9.71812 7.95119,-17.6693 17.6681,-17.6693z"/>
  <path class="fil11" d="M483.323 1142.24l48.5882 0 0 68.1001 -48.5882 0c-10.6276,0 -19.324,-8.69646 -19.324,-19.324l0 -29.452c0,-10.6276 8.69646,-19.324 19.324,-19.324z"/>
  <path class="fil12" d="M1492.91 1079.35l10.7669 0c1.82244,0 3.31181,1.49055 3.31181,3.31181l0 20.1532c0,1.82244 -1.48937,3.31299 -3.31181,3.31299l-10.7669 0c-1.82362,0 -3.31418,-1.49055 -3.31418,-3.31299l0 -20.1532c0,-1.82126 1.49055,-3.31181 3.31418,-3.31181z"/>
  <polygon class="fil8" points="504.597,1137.46 489.135,1137.46 489.135,1102.95 504.597,1102.95 "/>
  <path class="fil8" d="M516.423 775.253l681.383 0c16.6571,0 30.2847,13.6288 30.2847,30.2847l0 263.446c0,16.6559 -13.6276,30.2847 -30.2847,30.2847l-681.383 0c-16.6571,0 -30.2847,-13.6276 -30.2847,-30.2847l0 -263.446c0,-16.6571 13.6276,-30.2847 30.2847,-30.2847z"/>
 </g>
</svg>
