<?xml version="1.0" encoding="UTF-8"?>
<!DOCTYPE svg PUBLIC "-//W3C//DTD SVG 1.1//EN" "http://www.w3.org/Graphics/SVG/1.1/DTD/svg11.dtd">
<!-- Creator: CorelDRAW -->
<svg xmlns="http://www.w3.org/2000/svg" xml:space="preserve" width="6.82666in" height="6.82666in" style="shape-rendering:geometricPrecision; text-rendering:geometricPrecision; image-rendering:optimizeQuality; fill-rule:evenodd; clip-rule:evenodd"
viewBox="0 0 6.82666 6.82666"
 xmlns:xlink="http://www.w3.org/1999/xlink">
 <defs>
  <style type="text/css">
   <![CDATA[
    .fil2 {fill:none}
    .fil1 {fill:#388E3C}
    .fil6 {fill:#424242}
    .fil0 {fill:#66BB6A}
    .fil3 {fill:#FFCA28}
    .fil5 {fill:#424242;fill-rule:nonzero}
    .fil4 {fill:white;fill-rule:nonzero}
   ]]>
  </style>
   <clipPath id="id0">
    <path d="M3.41333 0c1.88513,0 3.41333,1.5282 3.41333,3.41333 0,1.88513 -1.5282,3.41333 -3.41333,3.41333 -1.88513,0 -3.41333,-1.5282 -3.41333,-3.41333 0,-1.88513 1.5282,-3.41333 3.41333,-3.41333z"/>
   </clipPath>
 </defs>
 <g id="Layer_x0020_1">
  <metadata id="CorelCorpID_0Corel-Layer"/>
  <path class="fil0" d="M3.41333 0c1.88513,0 3.41333,1.5282 3.41333,3.41333 0,1.88513 -1.5282,3.41333 -3.41333,3.41333 -1.88513,0 -3.41333,-1.5282 -3.41333,-3.41333 0,-1.88513 1.5282,-3.41333 3.41333,-3.41333z"/>
  <g style="clip-path:url(#id0)">
   <g id="_328322592">
    <g>
     <polygon id="_3293837521" class="fil1" points="5.25457,1.71483 9.04084,5.5011 9.04212,5.52883 5.25585,1.74256 "/>
     <polygon id="_329383512" class="fil1" points="5.25585,1.74256 9.04212,5.52883 9.04299,5.54756 5.25672,1.76128 "/>
     <polygon id="_329384664" class="fil1" points="5.25672,1.76128 9.04299,5.54756 9.06019,5.91918 5.27393,2.13291 "/>
     <polygon id="_329384712" class="fil1" points="5.27393,2.13291 9.06019,5.91918 9.06234,5.96564 5.27607,2.17937 "/>
     <polygon id="_329384232" class="fil1" points="5.27607,2.17937 9.06234,5.96564 8.97406,5.96972 5.18779,2.18345 "/>
     <polygon id="_329384256" class="fil1" points="5.18779,2.18345 8.97406,5.96972 8.76468,5.97942 4.97841,2.19315 "/>
     <polygon id="_329384328" class="fil1" points="4.97841,2.19315 8.76468,5.97942 8.45601,5.9937 4.66974,2.20743 "/>
     <polygon id="_329384352" class="fil1" points="4.66974,2.20743 8.45601,5.9937 8.13587,6.00853 4.3496,2.22226 "/>
     <polygon id="_329384496" class="fil1" points="4.3496,2.22226 8.13587,6.00853 7.8272,6.02281 4.04093,2.23654 "/>
     <polygon id="_329385552" class="fil1" points="4.04093,2.23654 7.8272,6.02281 7.50706,6.03763 3.72079,2.25136 "/>
     <polygon id="_329385120" class="fil1" points="3.72079,2.25136 7.50706,6.03763 7.19839,6.05193 3.41212,2.26565 "/>
     <polygon id="_329385096" class="fil1" points="3.41212,2.26565 7.19839,6.05193 6.87824,6.06674 3.09198,2.28047 "/>
     <polygon id="_329385240" class="fil1" points="3.09198,2.28047 6.87824,6.06674 6.56957,6.08103 2.78331,2.29476 "/>
     <polygon id="_329385264" class="fil1" points="2.78331,2.29476 6.56957,6.08103 6.24943,6.09585 2.46317,2.30958 "/>
     <polygon id="_329385600" class="fil1" points="2.46317,2.30958 6.24943,6.09585 5.94076,6.11014 2.1545,2.32387 "/>
     <polygon id="_329385192" class="fil1" points="2.1545,2.32387 5.94076,6.11014 5.62062,6.12496 1.83435,2.33869 "/>
     <polygon id="_329385672" class="fil1" points="1.83435,2.33869 5.62062,6.12496 5.44272,6.1332 1.65646,2.34693 "/>
     <polygon id="_329385312" class="fil1" points="1.65646,2.34693 5.44272,6.1332 5.39858,6.13524 1.61231,2.34897 "/>
     <polygon id="_329385024" class="fil1" points="5.28,2.34897 9.06627,6.13524 9.06627,6.18174 5.28,2.39547 "/>
     <polygon id="_329385216" class="fil1" points="5.28,2.39547 9.06627,6.18174 9.06627,6.55377 5.28,2.7675 "/>
     <polygon id="_329385744" class="fil1" points="5.28,2.7675 9.06627,6.55377 9.06627,6.57252 5.28,2.78624 "/>
     <polygon id="_329385768" class="fil1" points="5.28,2.78624 9.06627,6.57252 9.06627,6.60028 5.28,2.814 "/>
     <polygon id="_329385792" class="fil1" points="5.28,2.814 9.06627,6.60028 9.02106,6.60027 5.2348,2.814 "/>
     <polygon id="_329385696" class="fil1" points="5.2348,2.814 9.02106,6.60027 9.02106,6.68865 5.2348,2.90238 "/>
     <polygon id="_329385840" class="fil1" points="5.2348,2.90238 9.02106,6.68865 9.02106,8.54459 5.2348,4.75832 "/>
     <polygon id="_329386344" class="fil1" points="5.2348,4.75832 9.02106,8.54459 9.02095,8.55369 9.02061,8.56273 9.02005,8.57171 9.01928,8.58063 9.01828,8.58949 9.01707,8.59828 9.01565,8.60701 9.01403,8.61566 9.0122,8.62424 9.01016,8.63274 9.00793,8.64115 9.0055,8.64949 9.00287,8.65774 9.00006,8.6659 8.99706,8.67396 8.99387,8.68194 8.99049,8.68981 8.98694,8.69759 8.98321,8.70526 8.9793,8.71283 8.97522,8.72029 8.97098,8.72763 8.96657,8.73487 8.96199,8.74198 8.95725,8.74897 8.95235,8.75585 8.9473,8.76259 8.9421,8.76921 8.93675,8.77569 8.93125,8.78204 8.9256,8.78826 8.91981,8.79433 5.13355,5.00806 5.13933,5.00198 5.14498,4.99577 5.15048,4.98942 5.15583,4.98294 5.16104,4.97632 5.16609,4.96957 5.17098,4.9627 5.17572,4.95571 5.1803,4.94859 5.18471,4.94136 5.18896,4.93402 5.19304,4.92656 5.19694,4.91899 5.20067,4.91132 5.20422,4.90354 5.2076,4.89567 5.21079,4.88769 5.21379,4.87963 5.21661,4.87146 5.21923,4.86322 5.22166,4.85488 5.22389,4.84646 5.22593,4.83796 5.22776,4.82939 5.22939,4.82074 5.2308,4.81201 5.23201,4.80322 5.23301,4.79436 5.23378,4.78544 5.23435,4.77646 5.23468,4.76741 "/>
     <polygon id="_329385888" class="fil1" points="5.13355,5.00806 8.91981,8.79433 8.91389,8.80026 8.90783,8.80605 8.90163,8.81169 8.8953,8.81717 8.88885,8.8225 8.88227,8.82768 8.87556,8.8327 8.86874,8.83756 8.8618,8.84224 8.85474,8.84677 8.84758,8.85112 8.8403,8.8553 8.83292,8.8593 8.82543,8.86313 8.81785,8.86677 8.81017,8.87022 8.80239,8.8735 8.79451,8.87657 8.78655,8.87946 8.7785,8.88215 8.77037,8.88464 8.76216,8.88693 8.75387,8.88902 8.7455,8.89089 8.73706,8.89256 8.72855,8.89401 8.71997,8.89525 8.71133,8.89627 8.70262,8.89707 8.69386,8.89764 8.68504,8.89799 8.67616,8.8981 4.88989,5.11183 4.89877,5.11172 4.90759,5.11137 4.91635,5.1108 4.92506,5.11 4.9337,5.10898 4.94228,5.10774 4.95079,5.10629 4.95923,5.10462 4.9676,5.10274 4.97589,5.10066 4.98411,5.09837 4.99224,5.09588 5.00028,5.09319 5.00824,5.0903 5.01612,5.08722 5.0239,5.08395 5.03158,5.0805 5.03917,5.07685 5.04665,5.07303 5.05404,5.06903 5.06131,5.06485 5.06848,5.0605 5.07553,5.05597 5.08247,5.05128 5.0893,5.04643 5.096,5.04141 5.10258,5.03623 5.10904,5.0309 5.11536,5.02541 5.12156,5.01978 5.12762,5.01399 "/>
     <polygon id="_329386008" class="fil1" points="1.61333,2.814 5.39959,6.60027 5.35439,6.60028 1.56812,2.814 "/>
     <polygon id="_329386032" class="fil1" points="1.95823,5.11183 5.7445,8.8981 5.73562,8.89799 5.7268,8.89764 5.71804,8.89707 5.70933,8.89627 5.70069,8.89525 5.69211,8.89401 5.6836,8.89256 5.67516,8.89089 5.66679,8.88902 5.6585,8.88693 5.65028,8.88464 5.64215,8.88215 5.63411,8.87946 5.62615,8.87657 5.61827,8.8735 5.61049,8.87022 5.60281,8.86677 5.59522,8.86313 5.58774,8.8593 5.58035,8.8553 5.57308,8.85112 5.56591,8.84677 5.55885,8.84224 5.55191,8.83756 5.54509,8.8327 5.53839,8.82768 5.53181,8.8225 5.52535,8.81717 1.73908,5.0309 1.74554,5.03623 1.75212,5.04141 1.75882,5.04643 1.76565,5.05128 1.77259,5.05597 1.77965,5.0605 1.78681,5.06485 1.79409,5.06903 1.80147,5.07303 1.80896,5.07685 1.81654,5.0805 1.82422,5.08395 1.832,5.08722 1.83988,5.0903 1.84784,5.09319 1.85589,5.09588 1.86402,5.09837 1.87223,5.10066 1.88052,5.10274 1.88889,5.10462 1.89733,5.10629 1.90584,5.10774 1.91442,5.10898 1.92306,5.11 1.93177,5.1108 1.94053,5.11137 1.94935,5.11172 "/>
     <polygon id="_329386104" class="fil1" points="4.88989,5.11183 8.67616,8.8981 5.7445,8.8981 1.95823,5.11183 "/>
    </g>
    <path id="_328322616" class="fil1" d="M3.70718 1.78646l0.308669 -0.0142874 0.320138 -0.0148228 0.308673 -0.0142874 0.320138 -0.0148189 0.201492 -0.00933071 0.0882835 -0.00408661 0.00128346 0.0277323 0.000866142 0.0187244 0.0172047 0.371626 0.00214961 0.0464567 -0.0882835 0.00408661 -0.209382 0.00969291 -0.308669 0.0142874 -0.320142 0.0148228 -0.308669 0.0142874 -0.320142 0.0148189 -0.308669 0.0142913 -0.320142 0.0148189 -0.308669 0.0142874 -0.320142 0.0148228 -0.308669 0.0142874 -0.320142 0.0148189 -0.177898 0.00823622 -0.0441457 0.00204331 0.0441929 0 0.178091 0 0.32048 0 0.309004 0 0.32048 0 0.309004 0 0.32048 0 0.309004 0 0.32048 0 0.309004 0 0.32048 0 0.309004 0 0.209602 0 0.0883819 0 0 0.0465039 0 0.372028 0 0.0187441 0 0.0277598 -0.0452047 -3.93701e-006 0 0.0883819 0 1.85594c0,0.0973071 -0.0387795,0.185709 -0.101248,0.24974 -0.0624685,0.0640236 -0.148717,0.103772 -0.243654,0.103772l-2.93167 0c-0.094937,0 -0.181185,-0.039748 -0.243657,-0.103772 -0.0624646,-0.0640315 -0.101244,-0.152433 -0.101244,-0.24974l0 -1.85594 0 -0.0883819 -0.0452047 3.93701e-006 0 -0.0465039 0 -0.356122 0 -0.0159055 0 -0.0454803 -0.00210236 -0.0454331 -0.00073622 -0.0158898 -0.0164685 -0.35574 -0.00214961 -0.0464528 0.0882835 -0.00408661 0.185795 -0.00860236 0.308669 -0.0142874 0.320142 -0.0148228 0.308669 -0.0142874 0.320142 -0.0148189 0.308669 -0.0142913 0.320142 -0.0148189z"/>
   </g>
  </g>
  <path class="fil2" d="M3.41333 0c1.88513,0 3.41333,1.5282 3.41333,3.41333 0,1.88513 -1.5282,3.41333 -3.41333,3.41333 -1.88513,0 -3.41333,-1.5282 -3.41333,-3.41333 0,-1.88513 1.5282,-3.41333 3.41333,-3.41333z"/>
  <path class="fil3" d="M1.69956 2.814l3.44901 0 0.0862283 0 0 0.0883819 0 1.85594c0,0.0973071 -0.0387795,0.185709 -0.101248,0.24974 -0.0624685,0.0640236 -0.148717,0.103772 -0.243654,0.103772l-2.93167 0c-0.094937,0 -0.181185,-0.039748 -0.243657,-0.103772 -0.0624646,-0.0640315 -0.101244,-0.152433 -0.101244,-0.24974l0 -1.85594 0 -0.0883819 0.0862283 0z"/>
  <polygon class="fil4" points="1.6565,2.34897 5.19162,2.34897 5.28,2.34897 5.28,2.39547 5.28,2.7675 5.28,2.814 5.19162,2.814 1.6565,2.814 1.56812,2.814 1.56812,2.7675 1.56812,2.39547 1.56812,2.34897 "/>
  <path class="fil5" d="M1.6565 2.34897l0.178091 0 0.316902 0.465035 -0.309004 0 -0.27437 -0.402626 0 -0.0159016 0 -0.0465079 0.0883819 0zm0.498571 0l0.309004 0 0.316902 0.465035 -0.309004 0 -0.316902 -0.465035zm0.629484 0l0.309004 0 0.316902 0.465035 -0.309004 0 -0.316902 -0.465035zm0.629484 0l0.309004 0 0.316902 0.465035 -0.309004 0 -0.316902 -0.465035zm0.629484 0l0.309004 0 0.316902 0.465035 -0.309004 0 -0.316902 -0.465035zm0.629484 0l0.309004 0 0.297984 0.437276 0 0.0277598 -0.0883819 0 -0.201705 0 -0.316902 -0.465035z"/>
  <circle class="fil6" cx="3.42406" cy="3.96292" r="0.707025"/>
  <polygon class="fil3" points="3.72407,4.00234 3.48885,4.13942 3.25364,4.27651 3.18514,4.31643 3.18514,4.23708 3.18514,3.96292 3.18514,3.68875 3.18514,3.60941 3.25364,3.64933 3.48885,3.78641 3.72407,3.92349 3.79171,3.96292 "/>
  <polygon class="fil4" points="1.65646,2.34693 5.18779,2.18345 5.27607,2.17937 5.27393,2.13291 5.25672,1.76128 5.25457,1.71483 5.16629,1.71891 1.63495,1.88239 1.54667,1.88648 1.54881,1.93293 1.56602,2.30456 1.56817,2.35101 "/>
  <path class="fil5" d="M1.65646 2.34693l0.177898 -0.00823622 0.295059 -0.479189 -0.308669 0.0142874 -0.255461 0.414882 0.00073622 0.0158898 0.00214961 0.0464528 0.0882874 -0.00408661zm0.498039 -0.0230551l0.308669 -0.0142874 0.295059 -0.479193 -0.308669 0.0142874 -0.295059 0.479193zm0.628811 -0.0291102l0.308669 -0.0142874 0.295059 -0.479193 -0.308669 0.0142913 -0.295059 0.479189zm0.628811 -0.0291063l0.308669 -0.0142913 0.295059 -0.479189 -0.308669 0.0142874 -0.295059 0.479193zm0.628811 -0.0291102l0.308669 -0.0142874 0.295059 -0.479193 -0.308673 0.0142874 -0.295055 0.479193zm0.628811 -0.0291102l0.308669 -0.0142874 0.277445 -0.450587 -0.00128346 -0.0277323 -0.0882835 0.00408661 -0.201492 0.00933071 -0.295055 0.479189z"/>
 </g>
</svg>
