<?xml version="1.0" encoding="utf-8"?>
<!-- Generator: Adobe Illustrator 16.0.0, SVG Export Plug-In . SVG Version: 6.00 Build 0)  -->
<!DOCTYPE svg PUBLIC "-//W3C//DTD SVG 1.1//EN" "http://www.w3.org/Graphics/SVG/1.1/DTD/svg11.dtd">
<svg version="1.1" id="Idea_1_" xmlns="http://www.w3.org/2000/svg" xmlns:xlink="http://www.w3.org/1999/xlink" x="0px" y="0px"
	 width="512px" height="512px" viewBox="0 0 512 512" enable-background="new 0 0 512 512" xml:space="preserve">
<circle id="Background_41_" fill="#45546D" cx="256" cy="256" r="256"/>
<path id="Shadow_41_" opacity="0.1" d="M327.058,501.998c77.267-22.279,139.509-79.974,168.038-154.373L313.442,167.48L229.667,171
	L237,252.333L225.086,400.24L327.058,501.998z"/>
<g id="Idea">
	<g>
		<path fill="#F7D33E" d="M256,144.995c-48.214,0-87.298,39.085-87.298,87.299c0,31.794,27.808,49.086,42.403,74.879
			c3.771,6.666,5.771,19.897,6.8,33.753h76.19c1.03-13.855,3.03-27.087,6.802-33.753c14.594-25.793,42.402-43.085,42.402-74.879
			C343.299,184.08,304.214,144.995,256,144.995z"/>
		<g>
			<g>
				<rect x="243.861" y="409.076" fill="#BEC0C2" width="23.107" height="4.738"/>
				<path fill="#D1D3D4" d="M300.41,347.229c0,3.479-2.821,6.3-6.301,6.3h-77.98c-3.479,0-6.301-2.821-6.301-6.3l0,0
					c0-3.48,2.821-6.304,6.301-6.304h77.98C297.589,340.926,300.41,343.749,300.41,347.229L300.41,347.229z"/>
				<path fill="#E6E7E8" d="M216.703,352.983v27.234c0,16.419,13.311,29.729,29.73,29.729h17.373
					c16.419,0,29.729-13.311,29.729-29.729v-27.234H216.703z"/>
			</g>
			<path opacity="0.1" fill="#231F20" d="M294.109,340.926h-38.991v72.889h11.85v-4.036c14.932-1.581,26.565-14.211,26.565-29.561
				v-26.688h0.575c3.479,0,6.301-2.821,6.301-6.3C300.41,343.749,297.589,340.926,294.109,340.926z"/>
		</g>
		<path fill="#43536C" d="M282.446,232.328c0-2.304-1.867-4.17-4.17-4.17c-2.304,0-4.171,1.866-4.171,4.17
			c0,1.793,1.135,3.317,2.723,3.906v49.265c0,2.045-1.269,5.105-2.713,6.55l-3.662,3.663c-1.954,1.952-3.484,5.646-3.484,8.409
			v36.805h2.63v-36.805c0-2.045,1.268-5.105,2.713-6.552l3.662-3.661c1.953-1.953,3.483-5.646,3.483-8.409v-49.173
			C281.185,235.815,282.446,234.22,282.446,232.328z"/>
		<path fill="#43536C" d="M228.384,232.328c0-2.304,1.867-4.17,4.17-4.17c2.303,0,4.17,1.866,4.17,4.17
			c0,1.793-1.134,3.317-2.722,3.906v49.265c0,2.045,1.268,5.105,2.712,6.55l3.662,3.663c1.953,1.952,3.483,5.646,3.483,8.409v36.805
			h-2.628v-36.805c0-2.045-1.269-5.105-2.714-6.552l-3.662-3.661c-1.953-1.953-3.483-5.646-3.483-8.409v-49.173
			C229.646,235.815,228.384,234.22,228.384,232.328z"/>
		<g>
			<polygon fill="#FFFFFF" points="250.58,246.841 246.287,227.891 241.933,241.14 236.789,234.301 239.531,232.237 
				240.725,233.825 246.896,215.043 251.297,234.472 255.194,223.403 260.468,233.787 264.961,209.472 269.277,230.759 
				274.078,230.848 274.015,234.28 266.461,234.139 265.118,227.513 262.001,244.381 255.767,232.109 			"/>
		</g>
	</g>
	<g>
		<path fill="#F7D33E" d="M258.91,136.394V98.186h-5.82v38.208c0.966-0.029,1.936-0.048,2.91-0.048S257.943,136.365,258.91,136.394z
			"/>
		<path fill="#F7D33E" d="M161.635,227.853h-38.211v5.812h38.211c-0.029-0.965-0.049-1.934-0.049-2.905
			C161.586,229.786,161.605,228.819,161.635,227.853z"/>
		<path fill="#F7D33E" d="M350.364,233.664h38.213v-5.812h-38.213c0.028,0.966,0.049,1.934,0.049,2.907
			C350.413,231.73,350.393,232.699,350.364,233.664z"/>
		<path fill="#F7D33E" d="M191.327,161.981l-27.016-27.023l-4.115,4.115l27.022,27.018
			C188.545,164.679,189.916,163.309,191.327,161.981z"/>
		<path fill="#F7D33E" d="M320.67,299.539l27.021,27.019l4.104-4.104l-27.018-27.021
			C323.451,296.843,322.081,298.211,320.67,299.539z"/>
		<path fill="#F7D33E" d="M187.218,295.427l-27.022,27.018l4.115,4.105l27.015-27.017
			C189.914,298.207,188.544,296.837,187.218,295.427z"/>
		<path fill="#F7D33E" d="M324.78,166.088l27.015-27.015l-4.104-4.115l-27.02,27.023
			C322.084,163.308,323.453,164.677,324.78,166.088z"/>
	</g>
</g>
</svg>
