<?xml version="1.0" encoding="UTF-8"?>
<!DOCTYPE svg PUBLIC "-//W3C//DTD SVG 1.1//EN" "http://www.w3.org/Graphics/SVG/1.1/DTD/svg11.dtd">
<!-- Creator: CorelDRAW -->
<svg xmlns="http://www.w3.org/2000/svg" xml:space="preserve" width="2048px" height="2048px" style="shape-rendering:geometricPrecision; text-rendering:geometricPrecision; image-rendering:optimizeQuality; fill-rule:evenodd; clip-rule:evenodd"
viewBox="0 0 2048 2048"
 xmlns:xlink="http://www.w3.org/1999/xlink">
 <defs>
  <style type="text/css">
   <![CDATA[
    .fil2 {fill:none}
    .fil7 {fill:#5DC0D5}
    .fil1 {fill:#5E35B1}
    .fil9 {fill:#616161}
    .fil0 {fill:#7E57C2}
    .fil10 {fill:gray}
    .fil6 {fill:#8BC34A}
    .fil5 {fill:#999999}
    .fil4 {fill:#CCCCCC}
    .fil11 {fill:#FFC107}
    .fil3 {fill:#999999;fill-rule:nonzero}
    .fil8 {fill:#BBBBBB;fill-rule:nonzero}
   ]]>
  </style>
   <clipPath id="id0">
    <path d="M1024 -0.0011811c565.541,0 1024,458.461 1024,1024 0,565.541 -458.461,1024 -1024,1024 -565.541,0 -1024,-458.461 -1024,-1024 0,-565.541 458.461,-1024 1024,-1024z"/>
   </clipPath>
 </defs>
 <g id="Layer_x0020_1">
  <metadata id="CorelCorpID_0Corel-Layer"/>
  <path class="fil0" d="M1024 -0.0011811c565.541,0 1024,458.461 1024,1024 0,565.541 -458.461,1024 -1024,1024 -565.541,0 -1024,-458.461 -1024,-1024 0,-565.541 458.461,-1024 1024,-1024z"/>
  <g style="clip-path:url(#id0)">
   <g id="_452504648">
    <path id="_4525023201" class="fil1" d="M1491.99 448l-839.982 0 -23.9055 0 -0.0011811 24 0 119.883 -72.091 0 -24 0 0 24 0 912.098c0,0.618898 0.00826772,1.23662 0.0236221,1.85315 0.0153543,0.615355 0.0389764,1.22953 0.0708662,1.84134 0.0307087,0.611811 0.068504,1.22362 0.115748,1.83071 0.046063,0.608268 0.100394,1.21417 0.162992,1.81772 0.0614174,0.603544 0.131102,1.20591 0.207874,1.80473 0.0767717,0.598819 0.16063,1.19528 0.251575,1.79055 0.090945,0.595276 0.190158,1.18701 0.296457,1.77756 0.106299,0.589371 0.218504,1.17756 0.338977,1.76221 0.120473,0.584646 0.248032,1.16693 0.382677,1.74685 0.134646,0.579922 0.276378,1.1563 0.424016,1.7315 0.148819,0.574016 0.303544,1.14567 0.466536,1.71496 0.161811,0.569292 0.330709,1.13504 0.506693,1.69725 0.175984,0.563386 0.357874,1.12323 0.548032,1.68071 0.188977,0.557481 0.38504,1.11142 0.587008,1.66181 0.201969,0.550394 0.411024,1.09843 0.627166,1.64291 0.214961,0.544489 0.437008,1.08662 0.666142,1.62402 0.227953,0.538583 0.462992,1.07244 0.703938,1.60394 0.240945,0.531496 0.487796,1.05945 0.741733,1.58386 0.252756,0.52441 0.512599,1.04528 0.778347,1.5626 0.265748,0.517323 0.537402,1.0311 0.814961,1.54134 0.277559,0.510237 0.559843,1.01693 0.850394,1.5189 0.28937,0.50315 0.585827,1.00039 0.887009,1.49528 0.301181,0.494882 0.607087,0.986221 0.920079,1.47284 0.312992,0.486615 0.630709,0.969686 0.955513,1.44921 0.323622,0.478347 0.65315,0.954331 0.988583,1.42441 0.335433,0.47126 0.675591,0.936615 1.02165,1.39843 0.346063,0.461811 0.698032,0.918898 1.05473,1.37362 0.356693,0.453544 0.718111,0.902363 1.08543,1.34764 0.367323,0.444095 0.739371,0.884646 1.11732,1.32047 0.377953,0.435827 0.759449,0.86693 1.14803,1.29331 0.387402,0.426378 0.780709,0.848032 1.17874,1.26496 0.396851,0.416929 0.799607,0.829134 1.20709,1.23662l1135.88 1135.88 1.30394 1.27087 1.33465 1.23898 1.36654 1.20473 1.39606 1.17165 1.42677 1.13622 1.45512 1.09961 1.48347 1.06417 1.02284 0.69567 0.312992 0.312992 1.7811 1.10315 1.75984 1.03583 1.73977 0.972048 1.72087 0.910631 1.70433 0.848032 1.68662 0.790158 1.67244 0.733465 1.65827 0.677953 1.64528 0.624804 1.63465 0.574016 1.6252 0.523229 1.61575 0.475985 1.60866 0.431103 1.60276 0.386221 1.59685 0.343701 1.59449 0.303544 0.00354331 0.0011811 0.00354331 0 0.00354331 0 0.00354331 0.0011811 1.5815 0.275197 1.59213 0.239764 1.60394 0.204331 1.61339 0.168898 1.6252 0.133465 1.63347 0.0968505 1.64291 0.0590552 1.65236 0.022441 0.0200788 0 0.0200788 0.0011811 0.0200788 0 0.0188977 0 0.0200788 0 0.0200788 0 0.0200788 0 0.0200788 -0.0011811 0.590552 0.0106299 0.592914 0.00708662 0.592914 0.00472441 0.595276 0.0011811 0.595276 -0.00236221 0.597638 -0.00472441 0.598819 -0.00708662 0.601182 -0.00944883 835.218 0 2.2252 -0.0153543 2.1874 -0.0448819 2.15079 -0.0755906 2.11181 -0.106299 2.07638 -0.137008 2.03858 -0.170079 2.00315 -0.200788 1.96772 -0.23504 1.9311 -0.266929 1.89567 -0.301181 1.86142 -0.334252 1.82599 -0.369685 1.79291 -0.403937 1.75748 -0.43937 1.72441 -0.474804 1.69134 -0.510237 1.65827 -0.548032 1.6252 -0.583465 1.59331 -0.622441 1.56142 -0.659056 1.52953 -0.698032 1.49882 -0.735827 1.46693 -0.775985 1.4374 -0.814961 1.40551 -0.855119 1.37717 -0.895276 1.34646 -0.935434 1.31693 -0.977954 1.28858 -1.01811 1.25906 -1.06181 1.23071 -1.10315 1.20354 -1.14685 1.16102 -1.1752 1.1185 -1.20473 1.07717 -1.23543 1.03583 -1.26378 0.99567 -1.29567 0.954331 -1.32638 0.914174 -1.35709 0.874016 -1.38898 0.833859 -1.42205 0.794883 -1.45276 0.754725 -1.48701 0.71693 -1.52008 0.677953 -1.55433 0.640158 -1.5874 0.601182 -1.62284 0.564567 -1.65709 0.526772 -1.69252 0.490158 -1.72795 0.452363 -1.76457 0.416929 -1.80118 0.380315 -1.8378 0.344882 -1.87559 0.309449 -1.91339 0.274016 -1.95118 0.238583 -1.98898 0.204331 -2.02914 0.170079 -2.06811 0.135827 -2.10709 0.101575 -2.14843 0.068504 -2.1874 0.0366142 -2.22992 0.00236221 -2.27008 0.0011811 -0.0212599 0.00826772 -0.262205 0 -0.0543308 0.0814961 0 0 -24 0 -1031.98 0 -24 -1135.88 -1135.88 -24 0z"/>
   </g>
  </g>
  <path class="fil2" d="M1024 -0.0011811c565.541,0 1024,458.461 1024,1024 0,565.541 -458.461,1024 -1024,1024 -565.541,0 -1024,-458.461 -1024,-1024 0,-565.541 458.461,-1024 1024,-1024z"/>
  <g id="_451888008">
   <path id="_451902624" class="fil3" d="M556.01 591.883l95.9953 0 24 0 0 24 0 912.098c0,19.8225 -8.09292,37.8284 -21.1311,50.8654 -13.037,13.037 -31.0429,21.1311 -50.8666,21.1311l-0.0011811 0c-19.8225,0 -37.8284,-8.0941 -50.8666,-21.1311 -13.037,-13.0358 -21.1299,-31.0418 -21.1299,-50.8654l0 -912.098 0 -24 24 0z"/>
   <polygon id="_451907016" class="fil4" points="652.008,448 1491.99,448 1515.99,448 1515.99,472 1515.99,1503.98 1515.99,1527.98 1491.99,1527.98 652.006,1527.98 628.099,1527.98 628.099,1503.98 628.101,472 628.102,448 "/>
   <polygon id="_451908480" class="fil5" points="724.006,1383.98 1419.99,1383.98 1419.99,1431.98 724.006,1431.98 "/>
   <polygon id="_451906272" class="fil5" points="724.006,1288.21 1419.99,1288.21 1419.99,1336.21 724.006,1336.21 "/>
   <polygon id="_451905624" class="fil5" points="724.006,1097.12 1419.99,1097.12 1419.99,1145.12 724.006,1145.12 "/>
   <polygon id="_451904448" class="fil5" points="724.006,1192.44 1419.99,1192.44 1419.99,1240.44 724.006,1240.44 "/>
   <polygon id="_451903680" class="fil5" points="1036,1000.21 1419.99,1000.21 1419.99,1048.21 1036,1048.21 "/>
   <polygon id="_451903272" class="fil5" points="1036,808.312 1419.99,808.312 1419.99,856.312 1036,856.312 "/>
   <polygon id="_451902744" class="fil5" points="1036,904.216 1419.99,904.216 1419.99,952.216 1036,952.216 "/>
   <polygon id="_451900920" class="fil6" points="755.784,543.997 1388.33,543.997 1396.27,543.997 1420.27,543.997 1420.27,567.997 1420.27,575.664 1420.27,680.859 1420.27,688.525 1420.27,712.525 1396.27,712.525 1388.33,712.525 755.784,712.525 747.843,712.525 723.843,712.525 723.843,688.525 723.843,680.859 723.843,575.664 723.843,567.997 723.843,543.997 747.843,543.997 "/>
   <polygon id="_451891176" class="fil7" points="747.843,808.218 964.006,808.218 988.006,808.218 988.006,832.218 988.006,1029.41 988.006,1053.41 964.006,1053.41 747.843,1053.41 723.843,1053.41 723.843,1029.41 723.843,832.218 723.843,808.218 "/>
   <path id="_451892568" class="fil8" d="M1443.99 1599.98l-835.218 0c-14.8925,0.269292 -28.3193,-1.65709 -44.53,-11.9362 55.0666,6.09804 63.5327,-32.1154 63.8445,-53.1461l0.011811 -30.9166 0.0259843 -24 23.8807 0 839.984 0 23.8937 0 0.0129921 24 0.011811 23.4921 0 0.562205 -0.00708662 0.262205 -0.0011811 0 -0.0011811 0.0212599c0.144095,24.4406 -5.26182,41.7603 -17.8677,54.1441 -12.685,12.4606 -30.0981,17.5169 -54.0402,17.5169z"/>
   <path id="_451891032" class="fil9" d="M784.046 1022.29l43.9052 -74.0847c3.80315,-6.41812 10.0252,-6.41812 13.8284,0l43.9052 74.0847c0.153543,0.258662 0.3,0.523229 0.440552,0.796064l-102.52 0c0.141732,-0.272835 0.288189,-0.537402 0.440552,-0.796064z"/>
   <path id="_451892352" class="fil10" d="M815.981 1022.03l58.5142 -98.7355c5.06811,-8.55355 13.3618,-8.55355 18.4299,0l58.5142 98.7355c0.204331,0.344882 0.399213,0.698032 0.587008,1.06063l-136.632 0c0.187795,-0.362599 0.382677,-0.715749 0.587008,-1.06063z"/>
   <circle id="_451888080" class="fil11" cx="795.695" cy="878.735" r="22.7316"/>
  </g>
 </g>
</svg>
