<?xml version="1.0" encoding="iso-8859-1"?>
<!-- Uploaded to: SVG Repo, www.svgrepo.com, Generator: SVG Repo Mixer Tools -->
<svg height="800px" width="800px" version="1.1" id="Layer_1" xmlns="http://www.w3.org/2000/svg" xmlns:xlink="http://www.w3.org/1999/xlink" 
	 viewBox="0 0 512.001 512.001" xml:space="preserve">
<circle style="fill:#E84F4F;" cx="255.995" cy="256" r="255.995"/>
<path style="fill:#D14747;" d="M283.544,510.449l-72.524-72.524l45.536-7.33L257,358.849L117.172,218.132l77.411-88.295
	l72.968,72.968l3.777-35.985l20.88-39.205L416.487,95.85l84.075,84.075c7.441,23.99,11.44,49.534,11.44,75.967
	c0,132.053-99.956,240.673-228.345,254.445L283.544,510.449z"/>
<circle style="fill:#FFAA00;" cx="151.382" cy="170.155" r="58.974"/>
<circle style="fill:#FFFF00;" cx="151.382" cy="170.155" r="54.082"/>
<g>
	<path style="fill:#FFAA00;" d="M126.833,127.95l20.991,35.985c0.999-0.666,2.221-0.999,3.554-0.999
		c0.999,0,1.999,0.222,2.887,0.666l17.77-38.206c-9.774-9.107-37.095-6.109-45.092,2.554
		C126.944,127.95,126.833,127.95,126.833,127.95z"/>
	<path style="fill:#FFAA00;" d="M102.511,170.153l41.648-0.111c0-1.221,0.222-2.443,0.888-3.554c0.555-0.888,1.221-1.555,1.999-2.11
		l-24.212-34.429c-12.772,3.888-23.768,29.098-20.324,40.316L102.511,170.153L102.511,170.153z"/>
	<path style="fill:#FFAA00;" d="M126.833,212.358l20.658-36.096c-1.11-0.555-1.999-1.444-2.665-2.554
		c-0.555-0.888-0.777-1.777-0.888-2.776l-41.981,3.777c-2.998,12.994,13.327,35.207,24.767,37.762L126.833,212.358z"/>
	<path style="fill:#FFAA00;" d="M175.479,212.358l-20.991-35.985c-0.999,0.666-2.221,0.999-3.554,0.999
		c-0.999,0-1.999-0.222-2.887-0.666l-17.77,38.206c9.774,9.107,37.095,6.109,45.092-2.554H175.479z"/>
	<path style="fill:#FFAA00;" d="M199.913,170.264l-41.648,0.111c0,1.221-0.222,2.443-0.888,3.554
		c-0.555,0.888-1.221,1.555-1.999,2.11l24.212,34.429c12.772-3.888,23.768-29.098,20.324-40.316L199.913,170.264L199.913,170.264z"
		/>
	<path style="fill:#FFAA00;" d="M175.59,128.061l-20.769,36.096c1.11,0.555,1.999,1.444,2.665,2.554
		c0.555,0.888,0.777,1.777,0.888,2.776l41.981-3.777c2.998-12.994-13.327-35.207-24.767-37.762L175.59,128.061L175.59,128.061z"/>
</g>
<path style="fill:#E6E6E6;" d="M261.109,305.872v119.503l29.21,4.998c6.553,1.11,9.218,0.333,10.773,7.441h-45.092h-45.092
	c1.555-7.219,4.221-6.331,10.773-7.441l29.209-4.998V305.872L149.046,175.817c-1.221-1.555-1.666-3.554-1.11-5.553
	c0.666-1.999,2.11-3.22,3.777-3.22h104.066h104.066c1.666,0,3.22,1.221,3.777,3.22c0.666,1.999,0.111,4.11-1.11,5.553
	L260.664,305.872H261.109z"/>
<path style="fill:#FFAA00;" d="M177.811,187.812l78.299,97.957l78.299-97.957H177.922L177.811,187.812L177.811,187.812z"/>
<path style="fill:#FFFFFF;" d="M293.761,218.355c-3.221,2.332-6.664,2.443-10.218,0v-73.301v-7.219v-7.996
	c0-3.332,2.11-5.553,4.665-6.109l128.167-27.765c3.443,1.888,3.554,6.997,2.665,9.329l-123.502,27.21
	c-0.999,0.222-1.999,1.11-1.999,2.554c0,27.654,0.111,55.643,0.111,83.297L293.761,218.355L293.761,218.355z"/>
<path style="fill:#FFFF00;" d="M247.67,244.899c1.888,0,3.332,1.444,3.332,3.332c0,1.888-1.444,3.332-3.332,3.332
	s-3.332-1.444-3.332-3.332C244.339,246.342,245.782,244.899,247.67,244.899z M260.553,254.45c1.888,0,3.332,1.444,3.332,3.332
	c0,1.888-1.444,3.332-3.332,3.332c-1.889,0-3.332-1.444-3.332-3.332C257.222,255.893,258.666,254.45,260.553,254.45z
	 M254.667,224.575c2.665,0,4.776,2.11,4.776,4.776c0,2.665-2.11,4.776-4.776,4.776c-2.666,0-4.776-2.11-4.776-4.776
	S252.002,224.575,254.667,224.575z M241.006,200.807c4.887,0,8.885,3.999,8.885,8.885s-3.999,8.885-8.885,8.885
	s-8.885-3.999-8.885-8.885S236.119,200.807,241.006,200.807z M260.998,195.587c3.443,0,6.22,2.776,6.22,6.22s-2.776,6.22-6.22,6.22
	c-3.443,0-6.22-2.776-6.22-6.22S257.555,195.587,260.998,195.587z"/>
<path style="fill:#FFE25F;" d="M293.761,187.812h-10.218v30.543c3.554,2.443,6.997,2.332,10.218,0
	C293.761,208.137,293.761,198.03,293.761,187.812z"/>
</svg>