<?xml version="1.0" encoding="UTF-8"?>
<!DOCTYPE svg PUBLIC "-//W3C//DTD SVG 1.1//EN" "http://www.w3.org/Graphics/SVG/1.1/DTD/svg11.dtd">
<!-- Creator: CorelDRAW -->
<svg xmlns="http://www.w3.org/2000/svg" xml:space="preserve" width="2048px" height="2048px" style="shape-rendering:geometricPrecision; text-rendering:geometricPrecision; image-rendering:optimizeQuality; fill-rule:evenodd; clip-rule:evenodd"
viewBox="0 0 2048 2048"
 xmlns:xlink="http://www.w3.org/1999/xlink">
 <defs>
  <style type="text/css">
   <![CDATA[
    .fil2 {fill:none}
    .fil1 {fill:#00ACC1}
    .fil0 {fill:#4DD0E1}
    .fil3 {fill:#43A047;fill-rule:nonzero}
    .fil4 {fill:#C3E5C5;fill-rule:nonzero}
   ]]>
  </style>
   <clipPath id="id0">
    <path d="M1024 -0.0011811c565.539,0 1024,458.462 1024,1024 0,565.539 -458.462,1024 -1024,1024 -565.539,0 -1024,-458.462 -1024,-1024 0,-565.539 458.462,-1024 1024,-1024z"/>
   </clipPath>
 </defs>
 <g id="Layer_x0020_1">
  <metadata id="CorelCorpID_0Corel-Layer"/>
  <path class="fil0" d="M1024 -0.0011811c565.539,0 1024,458.462 1024,1024 0,565.539 -458.462,1024 -1024,1024 -565.539,0 -1024,-458.462 -1024,-1024 0,-565.539 458.462,-1024 1024,-1024z"/>
  <g style="clip-path:url(#id0)">
   <g id="_466478408">
    <g>
     <polygon id="_3968211041" class="fil1" points="1514.16,793.014 2650.04,1928.9 2653.46,1932.82 2656.8,1936.78 2660.07,1940.77 2663.26,1944.8 2666.37,1948.86 2669.4,1952.95 1533.52,817.071 1530.48,812.976 1527.37,808.914 1524.19,804.886 1520.92,800.894 1517.58,796.936 "/>
     <polygon id="_396797968" class="fil1" points="1533.52,817.071 2669.4,1952.95 2672.37,1957.11 2675.26,1961.3 2678.07,1965.51 2680.79,1969.76 2683.43,1974.05 2685.99,1978.36 2688.46,1982.7 2690.84,1987.07 2693.13,1991.47 2695.34,1995.89 2697.46,2000.35 2699.49,2004.83 2701.43,2009.33 2703.27,2013.87 2705.03,2018.43 2706.69,2023.01 2708.25,2027.62 2709.72,2032.25 2711.1,2036.9 2712.38,2041.58 2713.56,2046.28 2714.64,2051 2715.63,2055.74 2716.51,2060.5 2717.29,2065.28 2717.98,2070.08 2718.55,2074.9 2719.03,2079.74 2719.4,2084.59 2719.67,2089.46 2719.83,2094.35 2719.88,2099.26 1584,963.376 1583.95,958.471 1583.79,953.583 1583.52,948.711 1583.15,943.855 1582.67,939.017 1582.09,934.198 1581.41,929.398 1580.63,924.616 1579.75,919.855 1578.76,915.114 1577.68,910.394 1576.5,905.695 1575.22,901.019 1573.84,896.364 1572.37,891.733 1570.81,887.127 1569.15,882.543 1567.39,877.985 1565.55,873.452 1563.61,868.945 1561.58,864.464 1559.46,860.01 1557.25,855.583 1554.96,851.185 1552.57,846.814 1550.1,842.474 1547.55,838.163 1544.91,833.881 1542.18,829.632 1539.38,825.413 1536.49,821.226 "/>
     <polygon id="_396823792" class="fil1" points="1584,963.376 2719.88,2099.26 2719.85,2102.9 2719.76,2106.54 2719.62,2110.19 2719.41,2113.85 2719.14,2117.52 2718.81,2121.2 2718.42,2124.88 2717.96,2128.57 2717.45,2132.27 2716.87,2135.97 2716.24,2139.68 2715.53,2143.4 2714.77,2147.12 2713.94,2150.84 2713.05,2154.57 2712.1,2158.31 2711.07,2162.05 2709.99,2165.8 2708.84,2169.55 2707.62,2173.31 2706.34,2177.06 2704.99,2180.83 2703.58,2184.59 2702.1,2188.36 2700.55,2192.14 2698.94,2195.91 2697.25,2199.69 2695.5,2203.47 2693.68,2207.26 2691.79,2211.04 2689.83,2214.83 2687.8,2218.62 1551.92,1082.73 1553.95,1078.94 1555.91,1075.16 1557.8,1071.37 1559.62,1067.59 1561.37,1063.81 1563.05,1060.03 1564.67,1056.25 1566.22,1052.48 1567.7,1048.71 1569.11,1044.94 1570.46,1041.18 1571.74,1037.42 1572.96,1033.67 1574.11,1029.92 1575.19,1026.17 1576.21,1022.43 1577.17,1018.69 1578.06,1014.96 1578.89,1011.23 1579.65,1007.51 1580.36,1003.8 1580.99,1000.09 1581.57,996.386 1582.08,992.689 1582.54,988.999 1582.93,985.317 1583.26,981.641 1583.53,977.972 1583.73,974.311 1583.88,970.658 1583.97,967.013 "/>
     <polygon id="_396803560" class="fil1" points="1551.92,1082.73 2687.8,2218.62 2684.47,2224.58 2681,2230.47 2677.4,2236.27 2673.68,2241.99 2669.83,2247.62 2665.85,2253.18 2661.76,2258.65 2657.54,2264.04 2653.2,2269.35 2648.75,2274.57 2644.18,2279.71 2639.5,2284.77 2634.71,2289.74 2629.81,2294.63 2624.8,2299.44 2619.69,2304.16 2614.48,2308.79 2609.16,2313.34 2603.74,2317.81 2598.23,2322.19 2592.62,2326.48 2586.91,2330.69 2581.11,2334.81 2575.23,2338.85 2569.25,2342.8 2563.19,2346.66 2557.04,2350.44 2550.81,2354.12 2544.5,2357.72 2538.12,2361.24 2531.65,2364.66 2525.11,2368 1389.23,1232.12 1395.77,1228.78 1402.23,1225.36 1408.62,1221.84 1414.93,1218.24 1421.16,1214.55 1427.31,1210.78 1433.37,1206.92 1439.35,1202.97 1445.23,1198.93 1451.03,1194.81 1456.73,1190.6 1462.35,1186.31 1467.86,1181.93 1473.28,1177.46 1478.59,1172.91 1483.81,1168.28 1488.92,1163.56 1493.93,1158.75 1498.83,1153.86 1503.62,1148.89 1508.3,1143.83 1512.87,1138.69 1517.32,1133.47 1521.66,1128.16 1525.87,1122.77 1529.97,1117.3 1533.95,1111.74 1537.8,1106.1 1541.52,1100.38 1545.12,1094.58 1548.59,1088.7 "/>
     <polygon id="_396824392" class="fil1" points="1389.23,1232.12 2525.11,2368 2518.31,2371.34 2511.43,2374.58 2504.48,2377.73 2497.46,2380.79 2490.37,2383.75 2483.21,2386.61 2475.98,2389.38 2468.69,2392.06 2461.34,2394.64 2453.93,2397.12 2446.46,2399.51 2438.94,2401.8 2431.36,2404 2423.74,2406.09 2416.06,2408.09 2408.34,2410 2400.57,2411.8 2392.76,2413.51 2384.91,2415.12 2377.02,2416.63 2369.09,2418.04 2361.13,2419.36 2353.14,2420.57 2345.11,2421.69 2337.06,2422.71 2328.98,2423.62 2320.88,2424.44 2312.75,2425.15 2304.61,2425.77 2296.45,2426.28 2288.27,2426.69 2280.07,2427.01 1144.19,1291.12 1152.38,1290.81 1160.56,1290.4 1168.73,1289.88 1176.87,1289.27 1185,1288.55 1193.1,1287.74 1201.18,1286.82 1209.23,1285.81 1217.26,1284.69 1225.25,1283.48 1233.21,1282.16 1241.14,1280.75 1249.03,1279.24 1256.88,1277.63 1264.69,1275.92 1272.46,1274.12 1280.18,1272.21 1287.86,1270.21 1295.48,1268.11 1303.06,1265.92 1310.58,1263.63 1318.05,1261.24 1325.46,1258.76 1332.81,1256.18 1340.1,1253.5 1347.32,1250.73 1354.48,1247.87 1361.58,1244.9 1368.6,1241.85 1375.55,1238.7 1382.43,1235.46 "/>
     <polygon id="_396802096" class="fil1" points="1144.19,1291.12 2280.07,2427.01 2276.34,2429.84 2272.58,2432.68 2268.81,2435.53 2265.02,2438.39 2261.21,2441.25 2257.37,2444.12 2253.52,2447 2249.65,2449.89 2245.77,2452.77 2241.86,2455.66 2237.93,2458.56 2233.98,2461.45 2230.02,2464.34 2226.03,2467.23 2222.02,2470.13 2218,2473.02 2213.95,2475.9 2209.89,2478.78 2205.8,2481.66 2201.7,2484.53 2197.57,2487.4 2193.43,2490.25 2189.26,2493.1 2185.08,2495.94 2180.87,2498.77 2176.65,2501.58 2172.41,2504.39 2168.14,2507.18 2163.86,2509.96 2159.55,2512.72 2155.23,2515.47 2150.88,2518.19 1015,1382.31 1019.34,1379.58 1023.67,1376.84 1027.97,1374.07 1032.26,1371.3 1036.52,1368.51 1040.77,1365.7 1044.99,1362.88 1049.2,1360.06 1053.38,1357.22 1057.55,1354.37 1061.69,1351.51 1065.82,1348.65 1069.92,1345.78 1074.01,1342.9 1078.07,1340.02 1082.12,1337.13 1086.14,1334.25 1090.15,1331.35 1094.13,1328.46 1098.1,1325.57 1102.05,1322.67 1105.98,1319.78 1109.88,1316.89 1113.77,1314 1117.64,1311.12 1121.49,1308.24 1125.32,1305.37 1129.14,1302.5 1132.93,1299.64 1136.7,1296.79 1140.46,1293.95 "/>
     <polygon id="_396796360" class="fil1" points="660.252,1173.77 1796.13,2309.66 1787.1,2304.85 1778.3,2299.96 1769.73,2295 1761.39,2289.96 1753.27,2284.86 1745.37,2279.68 1737.7,2274.44 1730.25,2269.13 1723.02,2263.76 1716.02,2258.33 1709.23,2252.83 1702.65,2247.28 1696.3,2241.67 560.417,1105.79 566.772,1111.4 573.344,1116.95 580.134,1122.44 587.142,1127.88 594.37,1133.25 601.819,1138.56 609.491,1143.8 617.385,1148.98 625.504,1154.08 633.85,1159.12 642.421,1164.08 651.223,1168.97 "/>
     <polygon id="_396806512" class="fil1" points="800.479,1322.28 1936.36,2458.16 1931.75,2461.03 1927.12,2463.87 1922.47,2466.68 1917.8,2469.48 1913.1,2472.24 1908.39,2474.98 1903.66,2477.69 1898.9,2480.38 1894.13,2483.03 1889.34,2485.65 1884.52,2488.24 1879.69,2490.79 1874.83,2493.31 1869.96,2495.8 1865.06,2498.25 1860.15,2500.66 1855.21,2503.03 1850.26,2505.36 1845.28,2507.65 1840.29,2509.9 1835.27,2512.1 1830.24,2514.26 1825.18,2516.38 1820.11,2518.44 1815.01,2520.46 1809.9,2522.44 1804.76,2524.36 1799.61,2526.23 1794.43,2528.05 1789.24,2529.81 1784.02,2531.52 1778.79,2533.17 642.908,1397.29 648.142,1395.64 653.357,1393.93 658.551,1392.16 663.726,1390.34 668.881,1388.47 674.017,1386.55 679.132,1384.58 684.227,1382.56 689.302,1380.49 694.358,1378.38 699.393,1376.22 704.408,1374.02 709.404,1371.77 714.379,1369.48 719.333,1367.15 724.269,1364.78 729.184,1362.36 734.078,1359.92 738.953,1357.43 743.807,1354.91 748.641,1352.36 753.455,1349.77 758.249,1347.15 763.022,1344.49 767.776,1341.81 772.509,1339.1 777.221,1336.36 781.914,1333.59 786.585,1330.8 791.236,1327.98 795.868,1325.14 "/>
     <polygon id="_396803128" class="fil1" points="873.265,1273.03 2009.15,2408.91 2006.96,2410.48 2004.77,2412.06 2002.58,2413.63 2000.38,2415.2 1998.17,2416.77 1995.96,2418.33 1993.74,2419.9 1991.52,2421.46 1989.29,2423.03 1987.05,2424.59 1984.81,2426.15 1982.56,2427.7 1980.31,2429.26 1978.05,2430.81 1975.78,2432.36 1973.51,2433.91 1971.23,2435.45 1968.95,2436.99 1966.66,2438.53 1964.37,2440.06 1962.07,2441.59 1959.76,2443.12 1957.44,2444.65 1955.13,2446.17 1952.8,2447.68 1950.47,2449.19 1948.13,2450.7 1945.79,2452.2 1943.44,2453.7 1941.09,2455.19 1938.73,2456.68 1936.36,2458.16 800.479,1322.28 802.845,1320.8 805.207,1319.31 807.56,1317.82 809.91,1316.32 812.253,1314.82 814.589,1313.31 816.92,1311.8 819.245,1310.28 821.564,1308.76 823.876,1307.24 826.184,1305.71 828.485,1304.18 830.78,1302.65 833.069,1301.11 835.352,1299.57 837.629,1298.03 839.9,1296.48 842.166,1294.93 844.425,1293.38 846.68,1291.82 848.927,1290.27 851.169,1288.71 853.405,1287.15 855.635,1285.58 857.859,1284.02 860.077,1282.45 862.29,1280.88 864.497,1279.31 866.697,1277.74 868.893,1276.17 871.081,1274.6 "/>
     <polygon id="_396817768" class="fil1" points="857.429,1457.32 1993.31,2593.21 1954.56,2605.22 818.683,1469.34 "/>
     <polygon id="_396795880" class="fil1" points="642.908,1397.29 1778.79,2533.17 1740.04,2545.19 604.161,1409.31 "/>
     <polygon id="_396815536" class="fil1" points="1015,1382.31 2150.88,2518.19 2146.27,2521.06 2141.64,2523.9 2136.99,2526.72 2132.32,2529.51 2127.62,2532.27 2122.91,2535.01 2118.18,2537.73 2113.42,2540.41 2108.65,2543.06 2103.86,2545.68 2099.04,2548.27 2094.21,2550.83 2089.36,2553.35 2084.48,2555.83 2079.59,2558.28 2074.67,2560.69 2069.74,2563.06 2064.78,2565.39 2059.81,2567.68 2054.81,2569.93 2049.8,2572.13 2044.76,2574.29 2039.7,2576.41 2034.63,2578.48 2029.53,2580.5 2024.42,2582.47 2019.28,2584.39 2014.13,2586.26 2008.95,2588.08 2003.76,2589.84 1998.54,2591.55 1993.31,2593.21 857.429,1457.32 862.664,1455.67 867.878,1453.96 873.073,1452.19 878.247,1450.38 883.403,1448.51 888.538,1446.59 893.653,1444.61 898.748,1442.59 903.823,1440.53 908.879,1438.41 913.914,1436.25 918.929,1434.05 923.924,1431.8 928.9,1429.51 933.855,1427.18 938.789,1424.81 943.704,1422.4 948.6,1419.95 953.474,1417.46 958.328,1414.94 963.163,1412.39 967.976,1409.8 972.77,1407.18 977.542,1404.53 982.296,1401.84 987.029,1399.13 991.742,1396.39 996.434,1393.63 1001.11,1390.83 1005.76,1388.02 1010.39,1385.18 "/>
    </g>
    <path id="_466504544" class="fil1" d="M1401.6 705.288c54.515,29.6835 100.005,67.9288 131.921,111.783 32.126,44.1426 50.4851,93.9036 50.4851,146.306 0,38.7485 -10.0724,78.9379 -32.0799,119.358 -34.8697,64.0583 -92.5264,114.26 -162.695,149.384 -72.1253,36.1028 -157.579,56.2229 -245.034,59.0056 -39.7429,30.1358 -82.7316,62.1638 -129.194,91.1894 -49.0713,30.6544 -101.63,57.6603 -157.57,75.0119l-38.7461 12.0177 12.841 -31.6276c14.0752,-34.6701 26.1189,-72.9591 33.8847,-111.406 3.60236,-17.8323 6.29528,-35.7071 7.8567,-53.2807 -23.2583,16.7811 -47.5087,33.4618 -72.7867,49.2532 -49.0713,30.6555 -101.632,57.6591 -157.571,75.0119l-38.7461 12.0189 12.841 -31.6288c14.0764,-34.6701 26.1201,-72.9579 33.8847,-111.406 6.32835,-31.324 9.84922,-62.7804 9.36497,-92.5016 -97.5485,-50.8843 -155.723,-115.221 -181.13,-182.704 -19.0961,-50.7166 -19.604,-103.126 -4.35,-152.904 15.1937,-49.5756 46.0311,-96.482 89.7001,-136.415 80.0375,-73.1882 203.176,-123.093 351.959,-123.093 95.8855,0 186.9,23.061 261.806,61.9028 82.0926,6.5126 159.043,29.7083 223.358,64.7268z"/>
   </g>
  </g>
  <path class="fil2" d="M1024 -0.0011811c565.539,0 1024,458.462 1024,1024 0,565.539 -458.462,1024 -1024,1024 -565.539,0 -1024,-458.462 -1024,-1024 0,-565.539 458.462,-1024 1024,-1024z"/>
  <path class="fil3" d="M800.479 1322.28c-49.0713,30.6555 -101.632,57.6603 -157.571,75.0119l-38.7449 12.0189 12.8398 -31.6288c14.0764,-34.6701 26.1201,-72.9579 33.8847,-111.406 6.32717,-31.324 9.84922,-62.7804 9.36497,-92.5016 -97.5485,-50.8843 -155.723,-115.221 -181.13,-182.704 -19.0961,-50.7154 -19.604,-103.126 -4.35,-152.904 15.1937,-49.5756 46.03,-96.482 89.7001,-136.415 80.0375,-73.1894 203.177,-123.093 351.959,-123.093 99.6887,0 194.112,24.9272 270.643,66.5977 54.5162,29.6847 100.006,67.9288 131.922,111.783 32.126,44.1437 50.4839,93.9036 50.4839,146.306 0,38.7485 -10.0713,78.939 -32.0788,119.358 -34.8709,64.0583 -92.5276,114.26 -162.696,149.384 -72.1253,36.1028 -157.579,56.2229 -245.034,59.0067 -39.7418,30.1347 -82.7304,62.1626 -129.193,91.1883z"/>
  <path class="fil4" d="M1015 1382.31c-49.0713,30.6555 -101.63,57.6591 -157.57,75.0119l-38.7461 12.0177 12.841 -31.6276c14.0752,-34.6701 26.1189,-72.9591 33.8847,-111.408 6.32717,-31.3229 9.84922,-62.7792 9.36497,-92.5016 -97.5485,-50.8843 -155.723,-115.221 -181.132,-182.703 -19.0961,-50.7166 -19.604,-103.126 -4.34882,-152.904 15.1925,-49.5768 46.03,-96.482 89.6989,-136.415 80.0386,-73.1894 203.177,-123.095 351.959,-123.095 99.6898,0 194.112,24.9284 270.644,66.5989 54.515,29.6835 100.005,67.9276 131.921,111.783 32.126,44.1437 50.4851,93.9036 50.4851,146.306 0,38.7485 -10.0724,78.9379 -32.0799,119.358 -34.8697,64.0583 -92.5276,114.26 -162.695,149.384 -72.1253,36.1028 -157.579,56.2229 -245.034,59.0056 -39.7418,30.1358 -82.7316,62.1638 -129.194,91.1894z"/>
 </g>
</svg>
