<?xml version="1.0" encoding="UTF-8"?>
<!DOCTYPE svg PUBLIC "-//W3C//DTD SVG 1.1//EN" "http://www.w3.org/Graphics/SVG/1.1/DTD/svg11.dtd">
<!-- Creator: CorelDRAW -->
<svg xmlns="http://www.w3.org/2000/svg" xml:space="preserve" width="2048px" height="2048px" style="shape-rendering:geometricPrecision; text-rendering:geometricPrecision; image-rendering:optimizeQuality; fill-rule:evenodd; clip-rule:evenodd"
viewBox="0 0 2048 2048"
 xmlns:xlink="http://www.w3.org/1999/xlink">
 <defs>
  <style type="text/css">
   <![CDATA[
    .fil2 {fill:none}
    .fil12 {fill:#212121}
    .fil4 {fill:#424242}
    .fil10 {fill:#558B2F}
    .fil16 {fill:#575555}
    .fil15 {fill:#666666}
    .fil14 {fill:gray}
    .fil8 {fill:#87C9FF}
    .fil5 {fill:#8A8A8A}
    .fil3 {fill:#999999}
    .fil9 {fill:#9ED3FF}
    .fil6 {fill:#B3B3B3}
    .fil7 {fill:#D50000}
    .fil1 {fill:#F57C00}
    .fil0 {fill:#FF9800}
    .fil11 {fill:#FFC107}
    .fil13 {fill:#FFFFFE}
   ]]>
  </style>
   <clipPath id="id0">
    <path d="M1024 -0.0011811c565.541,0 1024,458.461 1024,1024 0,565.541 -458.461,1024 -1024,1024 -565.541,0 -1024,-458.461 -1024,-1024 0,-565.541 458.461,-1024 1024,-1024z"/>
   </clipPath>
 </defs>
 <g id="Layer_x0020_1">
  <metadata id="CorelCorpID_0Corel-Layer"/>
  <path class="fil0" d="M1024 -0.0011811c565.541,0 1024,458.461 1024,1024 0,565.541 -458.461,1024 -1024,1024 -565.541,0 -1024,-458.461 -1024,-1024 0,-565.541 458.461,-1024 1024,-1024z"/>
  <g style="clip-path:url(#id0)">
   <g id="_452521160">
    <path id="_4525184721" class="fil1" d="M2060.91 1829.77l0.0011811 0 674.972 674.973 0 24.9378 0 20.002 0 24.9378 0 64.6371 -0.0779528 1.52835 -0.227953 1.48465 -0.370866 1.43504 -0.506693 1.37599 -0.633071 1.30984 -0.753544 1.2378 -0.865749 1.15512 -0.969686 1.06654 -1.06654 0.969686 -1.15512 0.865749 -1.2378 0.753544 -1.30984 0.633071 -1.37599 0.506693 -1.43504 0.370866 -1.48465 0.227953 -1.52835 0.0779528 -1122 0 -1.52835 -0.0779528 -1.48465 -0.227953 -1.43504 -0.370866 -1.37717 -0.506693 -1.30984 -0.633071 -1.23662 -0.753544 -1.1563 -0.865749 -1.06654 -0.969686 -0.969686 -1.06654 -1133.84 -1133.85 -1.06654 -0.969686 -0.969686 -1.06654 -0.865749 -1.15512 -0.753544 -1.2378 -0.633071 -1.30984 -0.506693 -1.37599 -0.370866 -1.43504 -0.227953 -1.48465 -0.0779528 -1.52835 0 -738.003 0.0779528 -1.52835 0.227953 -1.48465 0.370866 -1.43504 0.506693 -1.37599 0.633071 -1.30984 0.753544 -1.2378 0.865749 -1.15512 0.969686 -1.06654 1.06654 -0.969686 1.1563 -0.865749 1.23662 -0.753544 1.30984 -0.633071 1.37717 -0.506693 1.43504 -0.370866 1.48465 -0.227953 1.52835 -0.0779528 280.956 0 -203.73 -203.73 -0.633071 -0.748819 -0.5563 -0.800788 -0.473622 -0.846851 -0.389764 -0.88819 -0.303544 -0.920079 -0.214961 -0.947245 -0.124016 -0.967324 -0.0295276 -0.979135 0.0673229 -0.986221 0.166536 -0.986221 0.269292 -0.979135 0.372048 -0.964961 0.467717 -0.922442 0.548032 -0.853938 0.62126 -0.783071 0.687402 -0.709843 0.748819 -0.634252 0.800788 -0.555119 0.846851 -0.473622 0.88819 -0.390945 0.920079 -0.303544 0.947245 -0.214961 0.966142 -0.124016 0.980316 -0.0283465 0.986221 0.0661418 0.98504 0.166536 0.979135 0.269292 0.964961 0.372048 1.37362 0.741733 1.21299 0.917717 11.5087 11.5087 42.0414 18.7181 0.633071 -0.320079 0.664961 -0.245669 0.688583 -0.166536 0.707481 -0.0874016 0.71693 -0.00354331 0.719292 0.0814961 0.715749 0.17126 0.702756 0.262205 148.031 65.9079 1.34528 -0.885827 1.44331 -0.700394 1.52244 -0.506693 1.57914 -0.307087 1.61339 -0.0956694 1.62874 0.120473 1.62284 0.346063 1.59331 0.581103 197.646 87.9981 1.42087 -0.927166 1.43976 -0.903544 1.45512 -0.87756 1.47284 -0.852757 1.48937 -0.825591 1.50473 -0.800788 1.52126 -0.773623 1.53662 -0.747638 1.55197 -0.720473 1.56614 -0.693308 1.5815 -0.664961 1.59567 -0.637796 1.60984 -0.609449 1.62284 -0.581103 1.63701 -0.552756 1.64882 -0.523229 1.66299 -0.493701 1.6748 -0.464174 1.68662 -0.433465 1.69843 -0.403937 1.71024 -0.373229 1.72205 -0.34252 1.73268 -0.311811 1.74331 -0.27874 1.75276 -0.248032 1.76339 -0.216142 1.77284 -0.183071 1.78228 -0.151181 1.79173 -0.11811 1.8 -0.0838583 1.80945 -0.0519685 1.81654 -0.0165354 1.66299 0.0141732 1.65591 0.0425197 1.65 0.0708662 1.64173 0.0992127 1.63347 0.126378 1.62638 0.153543 1.61811 0.180709 1.60984 0.207874 1.60158 0.23504 1.59331 0.261024 1.58268 0.288189 1.57441 0.312992 1.56496 0.338977 1.55551 0.364961 1.54488 0.390945 1.53543 0.415748 1.5248 0.43937 1.51417 0.465355 1.50354 0.490158 1.49173 0.512599 1.4811 0.538583 1.46929 0.561024 1.45748 0.584646 1.44449 0.608268 1.43386 0.630709 1.42087 0.654331 1.40788 0.675591 1.39488 0.699213 1.38189 0.721654 1.3689 0.741733 1.35473 0.765355 1.34055 0.785434 192.065 -85.5131 1.59331 -0.581103 1.62284 -0.346063 1.62874 -0.120473 1.61339 0.0956694 1.57914 0.307087 1.52244 0.506693 1.44331 0.700394 1.34528 0.885827 148.031 -65.9079 0.702756 -0.262205 0.715749 -0.17126 0.719292 -0.0814961 0.71693 0.00354331 0.707481 0.0874016 0.688583 0.166536 0.664961 0.245669 0.633071 0.320079 50.1449 -22.3264 0.0614174 -1.48465 0.276378 -1.44803 0.48189 -1.38898 0.677953 -1.3063 0.864568 -1.2 1.04291 -1.07126 1.21299 -0.917717 1.37362 -0.741733 0.964961 -0.372048 0.979135 -0.26811 0.98504 -0.166536 0.986221 -0.0673229 0.980316 0.0295276 0.966142 0.122835 0.947245 0.214961 0.920079 0.304725 0.88819 0.389764 0.846851 0.473622 0.800788 0.555119 0.748819 0.634252 0.687402 0.709843 1135.88 1135.88 0.62126 0.783071 0.548032 0.855119 0.467717 0.922442 0.372048 0.964961 0.269292 0.979135 0.166536 0.98504 0.0673229 0.986221 -0.0295276 0.980316 -0.124016 0.966142 -0.214961 0.947245 -0.303544 0.920079 -0.389764 0.88819 -0.473622 0.846851 -0.5563 0.800788 -0.633071 0.748819 -0.709843 0.687402 -0.783071 0.62126 -0.855119 0.548032 -0.922442 0.467717 -1.46929 0.52441 -1.4941 0.287008 -1.4941 0.0590552 -1.47047 -0.16063 -1.42559 -0.370866 -1.35354 -0.571654 -1.26142 -0.764174 -1.14449 -0.947245 -50.1449 22.3264 -0.185433 0.683859 -0.262205 0.657875 -0.337796 0.624804 -0.407481 0.583465 -0.477166 0.53504 -0.542126 0.480709 -0.605906 0.415748 -0.664961 0.347244 -10.9665 4.88268 177.282 177.282 0.865749 1.15512 0.753544 1.2378 0.633071 1.30984 0.506693 1.37599 0.370866 1.43504 0.227953 1.48465 0.0779528 1.52835 0 330.63 0 24.9378 0 63.2315 0 24.9366 0 22.4705 0 24.9366 0 22.4658 0 24.9378 0 20.002 0 24.9378 0 20.002 -674.973 -674.973zm119.329 6.98386l0.0011811 0 555.643 555.644 -555.644 -555.644zm550.172 52.9382l1.06654 0.969686 0.969686 1.06654m-98.9257 -223.609l0.146457 0.124016 0.687402 0.709843 -0.833859 -0.833859z"/>
   </g>
  </g>
  <path class="fil2" d="M1024 -0.0011811c565.541,0 1024,458.461 1024,1024 0,565.541 -458.461,1024 -1024,1024 -565.541,0 -1024,-458.461 -1024,-1024 0,-565.541 458.461,-1024 1024,-1024z"/>
  <g id="_441552792">
   <rect id="_441554664" class="fil3" transform="matrix(0.548546 -1.23205 1.23205 0.548546 752.313 644.77)" width="18.8197" height="211.451" rx="12.1984" ry="12.1984"/>
   <rect id="_441537048" class="fil3" transform="matrix(0.274273 -0.616027 1.23205 0.548546 602.667 571.197)" width="18.8197" height="211.451" rx="6.09922" ry="6.09922"/>
   <rect id="_441557520" class="fil3" transform="matrix(0.164557 -0.369601 1.23205 0.548546 542.738 541.736)" width="18.8197" height="211.451" rx="3.65906" ry="3.65906"/>
   <circle id="_441552672" class="fil4" transform="matrix(1.52527 -3.42586 3.4258 1.52529 547.606 539.735)" r="2.6941"/>
   <rect id="_441527352" class="fil3" transform="matrix(-0.548546 -1.23205 -1.23205 0.548546 1286.17 644.77)" width="18.8197" height="211.451" rx="12.1984" ry="12.1984"/>
   <rect id="_441542280" class="fil3" transform="matrix(-0.274273 -0.616027 -1.23205 0.548546 1435.82 571.197)" width="18.8197" height="211.451" rx="6.09922" ry="6.09922"/>
   <rect id="_441542616" class="fil3" transform="matrix(-0.164557 -0.369601 -1.23205 0.548546 1495.75 541.736)" width="18.8197" height="211.451" rx="3.65906" ry="3.65906"/>
   <circle id="_441550536" class="fil4" transform="matrix(-1.52527 -3.42577 -3.4258 1.52525 1490.88 539.737)" r="2.6941"/>
   <path id="_441541248" class="fil5" d="M938.465 752.274c15.4146,-31.7717 47.9741,-53.5949 85.5355,-53.5949 37.6288,0 70.1469,21.8717 85.5414,53.5949l-171.077 0z"/>
   <rect id="_441543960" class="fil6" x="448" y="750.37" width="1152" height="768.001" rx="15" ry="15"/>
   <path id="_441553392" class="fil7" d="M1600 1096l0 24.9378 -33.7122 0c-6.85749,0 -12.4677,-5.61142 -12.4677,-12.4689l0 0c0,-6.85749 5.61024,-12.4689 12.4677,-12.4689l33.7122 0z"/>
   <path id="_441526416" class="fil8" d="M554.248 837.625l58.6453 0c50.5642,50.237 458.052,478.087 565.58,591.038l-0.119291 0 -624.106 0c-6.34961,0 -11.5441,-5.19331 -11.5441,-11.5429l0 -567.95c0,-6.35079 5.19449,-11.5453 11.5441,-11.5453z"/>
   <rect id="_441535416" class="fil4" x="532.633" y="827.554" width="741.958" height="611.181" rx="19.9996" ry="19.9996"/>
   <rect id="_441534144" class="fil8" x="542.704" y="837.626" width="721.816" height="591.038" rx="11.5441" ry="11.5441"/>
   <path id="_441556536" class="fil9" d="M612.893 837.625c50.5642,50.237 458.052,478.087 565.58,591.038l74.504 0c6.34961,0 11.5429,-5.19331 11.5429,-11.5429l0 -567.95c0,-6.35079 -5.19331,-11.5453 -11.5429,-11.5453l-639.774 0 -0.309449 0z"/>
   <path id="_441540528" class="fil10" d="M1413.89 1060.76c6.62481,6.62481 10.3217,15.5575 10.3217,24.926 0,9.36851 -3.69922,18.3024 -10.3217,24.9272 -6.62481,6.62245 -15.5563,10.3217 -24.9248,10.3217 -9.36851,0 -18.3,-3.69922 -24.9248,-10.3217 -6.62363,-6.62481 -10.3217,-15.5587 -10.3217,-24.9272 0,-9.36851 3.69685,-18.3012 10.3205,-24.926 6.62481,-6.62363 15.5575,-10.3217 24.926,-10.3217 9.36851,0 18.3012,3.69803 24.9248,10.3217z"/>
   <path id="_441534360" class="fil4" d="M1405.94 1068.72c-4.34055,-4.34055 -10.3429,-7.02756 -16.9701,-7.02756 -6.62835,0 -12.6307,2.68701 -16.9713,7.02756 -4.34055,4.34055 -7.02638,10.3417 -7.02638,16.9713 0,6.62835 2.68701,12.6319 7.02756,16.9725 4.34055,4.34055 10.3429,7.02638 16.9701,7.02638 6.62717,0 12.6295,-2.68583 16.9701,-7.02638 4.34055,-4.34055 7.02638,-10.3441 7.02638,-16.9725 0,-6.62953 -2.68583,-12.6307 -7.02638,-16.9713z"/>
   <path id="_441558072" class="fil11" d="M1509.9 1060.76c6.62481,6.62481 10.3217,15.5575 10.3217,24.926 0,9.36851 -3.69922,18.3024 -10.3217,24.9272 -6.62481,6.62245 -15.5563,10.3217 -24.9248,10.3217 -9.36851,0 -18.3,-3.69922 -24.9248,-10.3217 -6.62363,-6.62481 -10.3217,-15.5587 -10.3217,-24.9272 0,-9.36851 3.69685,-18.3012 10.3205,-24.926 6.62481,-6.62363 15.5575,-10.3217 24.926,-10.3217 9.36851,0 18.3012,3.69803 24.9248,10.3217z"/>
   <path id="_441534936" class="fil4" d="M1501.95 1068.72c-4.34055,-4.34055 -10.3429,-7.02756 -16.9701,-7.02756 -6.62835,0 -12.6307,2.68701 -16.9713,7.02756 -4.34055,4.34055 -7.02638,10.3417 -7.02638,16.9713 0,6.62835 2.68701,12.6319 7.02756,16.9725 4.34055,4.34055 10.3429,7.02638 16.9701,7.02638 6.62717,0 12.6295,-2.68583 16.9701,-7.02638 4.34055,-4.34055 7.02638,-10.3441 7.02638,-16.9725 0,-6.62953 -2.68583,-12.6307 -7.02638,-16.9713z"/>
   <path id="_441548736" class="fil12" d="M1498.16 1072.51c-3.37087,-3.37087 -8.03268,-5.45788 -13.1799,-5.45788 -5.14843,0 -9.81024,2.08701 -13.1811,5.45788 -3.37087,3.37087 -5.4567,8.03268 -5.4567,13.1811 0,5.14843 2.08583,9.81024 5.45788,13.1811 3.37087,3.37205 8.03268,5.45788 13.1799,5.45788 5.14607,0 9.80788,-2.08583 13.1799,-5.45788 3.37087,-3.37087 5.45788,-8.03268 5.45788,-13.1811 0,-5.14843 -2.08583,-9.81024 -5.45788,-13.1811z"/>
   <path id="_441551040" class="fil12" d="M1402.15 1072.51c-3.37087,-3.37087 -8.03268,-5.45788 -13.1799,-5.45788 -5.14843,0 -9.81024,2.08701 -13.1811,5.45788 -3.37087,3.37087 -5.4567,8.03268 -5.4567,13.1811 0,5.14843 2.08583,9.81024 5.45788,13.1811 3.37087,3.37205 8.03268,5.45788 13.1799,5.45788 5.14607,0 9.80788,-2.08583 13.1799,-5.45788 3.37087,-3.37087 5.45788,-8.03268 5.45788,-13.1811 0,-5.14843 -2.08583,-9.81024 -5.45788,-13.1811z"/>
   <path id="_441531360" class="fil13" d="M1436.97 839.526c23.191,0 44.1933,9.40513 59.3941,24.6059 15.2032,15.2032 24.6071,36.2032 24.6071,59.3953 0,23.1921 -9.40394,44.1922 -24.6071,59.393 -15.202,15.2032 -36.2032,24.6071 -59.3941,24.6071 -23.1921,0 -44.1922,-9.40513 -59.3953,-24.6059 -15.2008,-15.202 -24.6059,-36.2032 -24.6059,-59.3941 0,-23.1921 9.40513,-44.1922 24.6059,-59.3953 15.2032,-15.2008 36.2032,-24.6059 59.3953,-24.6059z"/>
   <path id="_441547728" class="fil4" d="M1486.63 873.871c-12.7039,-12.7039 -30.2622,-20.5642 -49.6559,-20.5642 -19.3949,0 -36.9532,7.86024 -49.6571,20.5642 -12.7028,12.7028 -20.563,30.2622 -20.563,49.6559 0,19.3937 7.86024,36.952 20.563,49.6559 12.7039,12.7028 30.2622,20.563 49.6571,20.563 19.3937,0 36.9508,-7.86024 49.6559,-20.5654 12.7051,-12.7028 20.5642,-30.2622 20.5642,-49.6536 0,-19.3937 -7.85906,-36.9508 -20.5642,-49.6559z"/>
   <path id="_441545472" class="fil14" d="M1600 1209.1l-240.907 0c-6.85749,0 -12.4677,-5.61024 -12.4677,-12.4677l0 -0.0011811c0,-6.85749 5.61024,-12.4677 12.4677,-12.4677l240.907 0 0 24.9366z"/>
   <path id="_441553656" class="fil14" d="M1600 1231.58l-240.907 0c-6.85749,0 -12.4677,5.61024 -12.4677,12.4677l0 0.0011811c0,6.85749 5.61024,12.4677 12.4677,12.4677l240.907 0 0 -24.9366z"/>
   <path id="_441534072" class="fil14" d="M1600 1303.92l-240.907 0c-6.85749,0 -12.4677,-5.61024 -12.4677,-12.4677l0 -0.00236221c0,-6.8563 5.61024,-12.4677 12.4677,-12.4677l240.907 0 0 24.9378z"/>
   <path id="_441541632" class="fil14" d="M1600 1348.86l-240.907 0c-6.85749,0 -12.4677,-5.61024 -12.4677,-12.4677l0 -0.00236221c0,-6.8563 5.61024,-12.4677 12.4677,-12.4677l240.907 0 0 24.9378z"/>
   <path id="_441527520" class="fil14" d="M1600 1393.8l-240.907 0c-6.85749,0 -12.4677,-5.61024 -12.4677,-12.4677l0 -0.00236221c0,-6.8563 5.61024,-12.4677 12.4677,-12.4677l240.907 0 0 24.9378z"/>
   <path id="_441531648" class="fil14" d="M1600 1438.73l-240.907 0c-6.85749,0 -12.4677,-5.61024 -12.4677,-12.4677l0 -0.00236221c0,-6.8563 5.61024,-12.4677 12.4677,-12.4677l240.907 0 0 24.9378z"/>
   <path id="_441541752" class="fil15" d="M1456.2 984.582c-5.2689,1.65945 -10.9347,-1.29213 -12.5941,-6.56103l-32.4307 -102.954c-1.65945,-5.26772 1.29213,-10.9347 6.56103,-12.5941l38.4638 122.11z"/>
   <path id="_441537024" class="fil16" d="M1417.74 862.472l0 -0.0011811c0.217323,-0.0673229 0.434646,-0.127559 0.651969,-0.180709 5.07638,-1.23071 10.3524,1.69016 11.9433,6.74174l32.4296 102.956c1.64646,5.22638 -1.24606,10.8449 -6.43701,12.5539l-0.122835 0.0401575 -0.0011811 0 -38.4638 -122.11z"/>
  </g>
 </g>
</svg>
