<?xml version="1.0" encoding="UTF-8"?>
<!DOCTYPE svg PUBLIC "-//W3C//DTD SVG 1.1//EN" "http://www.w3.org/Graphics/SVG/1.1/DTD/svg11.dtd">
<!-- Creator: CorelDRAW -->
<svg xmlns="http://www.w3.org/2000/svg" xml:space="preserve" width="2048px" height="2048px" style="shape-rendering:geometricPrecision; text-rendering:geometricPrecision; image-rendering:optimizeQuality; fill-rule:evenodd; clip-rule:evenodd"
viewBox="0 0 2048 2048"
 xmlns:xlink="http://www.w3.org/1999/xlink">
 <defs>
  <style type="text/css">
   <![CDATA[
    .fil2 {fill:none}
    .fil1 {fill:#00897B}
    .fil0 {fill:#4DB6AC}
    .fil3 {fill:#E65100}
    .fil5 {fill:#FB8C00}
    .fil4 {fill:#FFCC80}
   ]]>
  </style>
   <clipPath id="id0">
    <path d="M1024 -0.0011811c565.539,0 1024,458.462 1024,1024 0,565.539 -458.462,1024 -1024,1024 -565.539,0 -1024,-458.462 -1024,-1024 0,-565.539 458.462,-1024 1024,-1024z"/>
   </clipPath>
 </defs>
 <g id="Layer_x0020_1">
  <metadata id="CorelCorpID_0Corel-Layer"/>
  <path class="fil0" d="M1024 -0.0011811c565.539,0 1024,458.462 1024,1024 0,565.539 -458.462,1024 -1024,1024 -565.539,0 -1024,-458.462 -1024,-1024 0,-565.539 458.462,-1024 1024,-1024z"/>
  <g style="clip-path:url(#id0)">
   <g id="_466505312">
    <g>
     <polygon id="_3967958561" class="fil1" points="1577.25,504.226 2713.13,1640.11 2714.83,1642.38 2716.31,1644.81 2717.56,1647.38 2718.55,1650.09 2719.28,1652.91 2719.73,1655.83 2719.88,1658.83 2719.88,1806.2 1584,670.317 1584,522.946 1583.85,519.944 1583.4,517.026 1582.67,514.206 1581.67,511.502 1580.43,508.927 1578.95,506.496 "/>
     <polygon id="_396824656" class="fil1" points="1584,670.317 2719.88,1806.2 2719.88,2660.94 2719.73,2663.94 2719.28,2666.86 2718.55,2669.68 2717.56,2672.38 2716.31,2674.96 2714.83,2677.39 2713.13,2679.66 2711.22,2681.75 2709.13,2683.66 2706.86,2685.36 2704.43,2686.84 2701.85,2688.08 2699.15,2689.08 2696.33,2689.81 2693.41,2690.26 2690.41,2690.41 1629.35,2690.41 1626.35,2690.26 1623.43,2689.81 1620.61,2689.08 1617.91,2688.08 1615.33,2686.84 1612.9,2685.36 1610.63,2683.66 474.753,1547.78 477.023,1549.48 479.454,1550.96 482.028,1552.2 484.733,1553.2 487.552,1553.93 490.471,1554.37 493.473,1554.53 1554.53,1554.53 1557.53,1554.37 1560.45,1553.93 1563.27,1553.2 1565.97,1552.2 1568.55,1550.96 1570.98,1549.48 1573.25,1547.78 1575.34,1545.87 1577.25,1543.77 1578.95,1541.5 1580.43,1539.07 1581.67,1536.5 1582.67,1533.79 1583.4,1530.97 1583.85,1528.06 1584,1525.05 "/>
    </g>
    <path id="_466491080" class="fil1" d="M744.532 493.473l222.675 0 61.3158 0 222.675 0 61.3146 0 115.675 0 126.34 0c16.2118,0 29.4733,13.2614 29.4733,29.4733l0 147.371 0 854.736c0,16.2118 -13.2614,29.4733 -29.4733,29.4733l-1061.05 0c-16.2118,0 -29.4733,-13.2614 -29.4733,-29.4733l0 -854.738 0 -147.369c0,-16.2118 13.2614,-29.4733 29.4733,-29.4733l105.044 0 84.7005 0 61.3146 0z"/>
   </g>
  </g>
  <path class="fil2" d="M1024 -0.0011811c565.539,0 1024,458.462 1024,1024 0,565.539 -458.462,1024 -1024,1024 -565.539,0 -1024,-458.462 -1024,-1024 0,-565.539 458.462,-1024 1024,-1024z"/>
  <rect class="fil3" x="598.518" y="493.473" width="829.669" height="225.199"/>
  <path class="fil4" d="M1584 670.317l0 854.736c0,16.2118 -13.2626,29.4733 -29.4744,29.4733l-1061.05 0c-16.2118,0 -29.4744,-13.2614 -29.4744,-29.4733l0 -854.736 1120 0z"/>
  <polygon class="fil5" points="1171.37,1082.95 876.633,1259.79 876.633,906.105 "/>
  <path class="fil5" d="M1364.78 670.315l-52.2697 -176.842 242.014 0c16.2118,0 29.4744,13.2614 29.4744,29.4733l0 147.369 -219.219 0z"/>
  <polygon class="fil5" points="1080.79,670.315 1028.52,493.473 1251.2,493.473 1303.47,670.315 "/>
  <polygon class="fil5" points="796.803,670.315 744.532,493.473 967.207,493.473 1019.48,670.315 "/>
  <path class="fil5" d="M493.473 493.473l189.744 0 52.2697 176.842 -271.488 0 0 -147.369c0,-16.2118 13.2626,-29.4733 29.4744,-29.4733z"/>
 </g>
</svg>
